<?xml version="1.0" encoding="UTF-8"?>
<svg version="1.1" xmlns="http://www.w3.org/2000/svg" width="1024" height="1024">
<path d="M0 0 C337.92 0 675.84 0 1024 0 C1024 337.92 1024 675.84 1024 1024 C686.08 1024 348.16 1024 0 1024 C0 686.08 0 348.16 0 0 Z " fill="#FDFDFD" transform="translate(0,0)"/>
<path d="M0 0 C14.36344763 12.09821128 23.87552054 28.38251914 27 47 C27.77792733 60.63376588 28.25862767 74.89778538 24 88 C23.44892578 89.75376953 23.44892578 89.75376953 22.88671875 91.54296875 C20.00096031 100.11811096 16.01025108 108.02974203 11.875 116.0625 C3.58117564 132.26013325 -1.04216236 146.86326529 4.4921875 164.84765625 C9.2321102 178.69076383 17.46741575 190.57167773 26.42041016 201.97558594 C40.3785281 219.86441345 54.60280099 240.00063479 60.5625 262.1875 C60.76520508 262.93016113 60.96791016 263.67282227 61.17675781 264.43798828 C66.21685197 283.77412416 68.22820992 303.50099613 68.25 323.4375 C68.25133942 324.17599182 68.25267883 324.91448364 68.25405884 325.675354 C68.24426416 351.23541067 65.96747704 376.7351291 63.81689453 402.1875 C58.96791993 459.62274126 59.85147282 514.26430904 67.5703125 571.38671875 C68.04755776 574.92438751 68.52396841 578.46216775 69 582 C69.09728394 582.72028381 69.19456787 583.44056763 69.2947998 584.18267822 C73.60664322 616.22587902 77.06398772 653.27796263 57.43359375 681.23046875 C45.0602965 696.75721972 22.80427673 703.7327679 4.0625 707.57275391 C0.36559578 708.33856622 -3.31606257 709.17441854 -7 710 C10.84694993 710.70525818 25.33289966 708.20137063 41.51171875 700.5859375 C47.80594102 697.72428661 47.80594102 697.72428661 51 697 C52.94921875 697.94140625 52.94921875 697.94140625 54.6875 699.5625 C62.82817998 706.49183547 73.67381233 709.44271439 83.59341431 713.04849243 C128.3011974 729.35970871 128.3011974 729.35970871 135.25 744.25 C137.13962487 748.71638605 138.07102115 753.1948781 137 758 C135.29015012 760.51550796 134.24067783 760.95024346 131.23779297 761.57104492 C112.7515885 764.02016732 92.93333631 761.92242005 74.35227776 761.14858055 C46.45531987 760.00900749 18.58968573 759.65506333 -9.32836914 759.68432617 C-14.16733018 759.6889857 -19.00604144 759.68189372 -23.8449707 759.66381836 C-53.20836082 759.55527807 -82.29883551 760.27373768 -111.58115196 762.46668816 C-123.97823382 763.38625991 -136.38709196 763.84231088 -148.8125 764.1875 C-149.47249748 764.20664333 -150.13249496 764.22578667 -150.81249237 764.2455101 C-183.87276678 765.20249071 -216.95145308 765.24741604 -250.02320474 765.30005139 C-255.13305791 765.30854412 -260.24286285 765.32374073 -265.35269165 765.34140015 C-271.67106984 765.3626887 -277.9893394 765.37136001 -284.30775243 765.36551213 C-287.58074588 765.362582 -290.85352893 765.36544549 -294.1265049 765.37799454 C-318.3344472 765.46180135 -349.51470772 765.46599098 -368.6875 748.0625 C-381.29443717 734.62997579 -383.88774372 717.39972336 -383.40625 699.7109375 C-382.52208588 683.03891772 -374.28183249 667.26181589 -362 656 C-340.5232358 639 -340.5232358 639 -332 639 C-331.74605469 639.55429687 -331.49210937 640.10859375 -331.23046875 640.6796875 C-330.88628906 641.40414062 -330.54210937 642.12859375 -330.1875 642.875 C-329.85105469 643.59429688 -329.51460938 644.31359375 -329.16796875 645.0546875 C-328.00532903 647.30542806 -328.00532903 647.30542806 -325 649 C-321.56692835 649.24270825 -321.56692835 649.24270825 -317.8125 649.125 C-315.90404297 649.09792969 -315.90404297 649.09792969 -313.95703125 649.0703125 C-312.98121094 649.04710937 -312.00539063 649.02390625 -311 649 C-310.72027344 649.62390625 -310.44054687 650.2478125 -310.15234375 650.890625 C-308.3567056 654.17755585 -306.51842871 654.76546361 -303 656 C-293.54511954 657.40524879 -285.64997687 654.41132856 -277.60864258 649.55615234 C-270.66346546 645.45414344 -264.65519817 643.81347822 -256.6875 642.875 C-254.3876978 642.56095035 -252.08822176 642.24450376 -249.7890625 641.92578125 C-248.64856445 641.77318848 -247.50806641 641.6205957 -246.33300781 641.46337891 C-221.83952677 638.05811762 -198.32449031 633.77337935 -178.58691406 617.99560547 C-169.31056879 610.74534014 -158.03729218 607.52670377 -146.98983765 603.95452881 C-142.94360364 602.64214356 -138.90763302 601.29888268 -134.87109375 599.95703125 C-134.08291763 599.69515015 -133.29474152 599.43326904 -132.48268127 599.16345215 C-86.67727893 583.92178728 -43.03601844 561.33548659 -4 533 C-3.09169434 532.34741211 -3.09169434 532.34741211 -2.16503906 531.68164062 C9.38556587 523.37138944 15.02587578 515.62643773 18.8125 502 C19.06257813 501.10829102 19.31265625 500.21658203 19.5703125 499.29785156 C31.47419753 455.65515977 42.39291979 406.28499827 42 361 C41.90090332 361.61141846 41.80180664 362.22283691 41.69970703 362.8527832 C17.72885567 509.20741217 17.72885567 509.20741217 -5.60498047 526.16650391 C-10.33823736 529.54141945 -15.16236021 532.77730694 -20 536 C-20.77456543 536.51900879 -21.54913086 537.03801758 -22.34716797 537.57275391 C-34.9142841 545.97044213 -47.78288907 553.67282286 -61 561 C-61.97018066 561.54599854 -61.97018066 561.54599854 -62.95996094 562.10302734 C-91.63150752 578.22979039 -122.3050016 589.92546147 -153.72485352 599.35913086 C-162.72548419 602.09071415 -171.00575121 604.91056352 -179 610 C-179.88042969 610.55123535 -180.76085937 611.1024707 -181.66796875 611.67041016 C-184.39757563 613.40427757 -187.10542057 615.16871364 -189.8125 616.9375 C-209.99733647 629.90618951 -228.77374289 636.1581632 -252.6875 637.4375 C-264.9071549 638.22998808 -274.48767315 641.34821503 -285.17578125 647.0625 C-290.85500073 650.03988353 -296.44858741 652.6391622 -303 652 C-304 651 -304 651 -304.296875 648.23828125 C-303.75261941 642.30159856 -299.18663994 638.91539284 -295 635 C-291.11482237 631.8276069 -287.10118748 628.88560005 -283 626 C-281.58330006 624.97921284 -280.16662666 623.95838885 -278.75 622.9375 C-277.38875 621.9784375 -277.38875 621.9784375 -276 621 C-277.18529297 621.76570312 -277.18529297 621.76570312 -278.39453125 622.546875 C-281.51145841 624.55776542 -284.63341362 626.56073925 -287.75683594 628.56152344 C-289.31062677 629.55792479 -290.86328623 630.55609178 -292.41503906 631.55566406 C-294.91919657 633.16736684 -297.42793112 634.77173923 -299.9375 636.375 C-300.72938721 636.88643555 -301.52127441 637.39787109 -302.3371582 637.92480469 C-309.00461272 642.16868906 -314.79318338 645.80458987 -323 645 C-325 643 -325 643 -325.0625 639.5 C-322.37069397 622.68377355 -299.33323723 605.96497683 -286.5 596.5 C-264.7305249 580.85670051 -243.36433442 574.85755774 -217.29101562 570.55273438 C-198.80931386 567.46110114 -186.09359597 560.39165005 -171.04785156 549.46826172 C-168.05743274 547.3242013 -165.00689872 545.27872884 -161.9375 543.25 C-161.34904297 542.85949463 -160.76058594 542.46898926 -160.15429688 542.06665039 C-157.1955228 540.1060401 -154.23205973 538.15263379 -151.26660156 536.20214844 C-139.14494296 528.22308356 -127.1819252 520.16525488 -115.69042969 511.29785156 C-113.10740817 509.31469986 -110.48919465 507.37927713 -107.875 505.4375 C-98.43718187 498.34631328 -89.13290582 491.20439909 -80.44921875 483.1953125 C-76.90653133 480.01988933 -73.18271263 477.08260178 -69.4453125 474.140625 C-66.38475367 471.46141376 -63.82716953 468.65433907 -62 465 C-61.90333189 463.06353635 -61.87203432 461.12368891 -61.87060547 459.18481445 C-61.86750366 457.9534375 -61.86440186 456.72206055 -61.86120605 455.45336914 C-61.86301467 454.09000625 -61.86501421 452.72664361 -61.8671875 451.36328125 C-61.86608775 449.94807914 -61.86465701 448.53287725 -61.86291504 447.11767578 C-61.85999568 443.30797863 -61.86433851 439.49832427 -61.87102509 435.68863297 C-61.87500222 433.31116995 -61.87751319 430.93370917 -61.87969971 428.5562439 C-61.92544488 385.32396826 -63.11544714 342.19109877 -65 299 C-65.3211675 301.72836465 -65.6317454 304.45739336 -65.9375 307.1875 C-66.02451172 307.91775391 -66.11152344 308.64800781 -66.20117188 309.40039062 C-68.20302188 327.56532588 -68.09052688 345.81706722 -67.9547081 364.06416893 C-67.92908327 368.13905465 -67.91778232 372.2136998 -67.91360474 376.28865051 C-67.91287205 376.98358728 -67.91213936 377.67852405 -67.91138446 378.39451951 C-67.90873168 381.24361639 -67.90668542 384.09271341 -67.9049089 386.94181097 C-67.89911514 394.95944831 -67.87477181 402.97611021 -67.79785156 410.9934082 C-67.73628801 417.42393372 -67.7138292 423.85327466 -67.73666394 430.2840727 C-67.74723907 433.6687447 -67.73877808 437.05080682 -67.68233871 440.43507957 C-67.36946148 462.52421893 -67.36946148 462.52421893 -71.33770752 467.7640686 C-74.11165115 470.32842889 -76.73253114 472.1292343 -80 474 C-81.87584768 475.49400921 -83.73296683 477.01212055 -85.5625 478.5625 C-86.48289062 479.30371094 -87.40328125 480.04492188 -88.3515625 480.80859375 C-90.80308223 482.83706362 -93.11821748 484.94812957 -95.4375 487.125 C-106.74255033 497.40721245 -119.58162397 506.09830721 -132.09204102 514.83618164 C-137.45176062 518.5841878 -142.68406515 522.47528906 -147.875 526.453125 C-150 528 -150 528 -151 528 C-151.11734656 504.18044219 -151.20523762 480.36092836 -151.25906086 456.54113865 C-151.28472784 445.4785801 -151.31965543 434.41620225 -151.37719727 423.35375977 C-151.42738763 413.69995248 -151.45937435 404.04627619 -151.47044247 394.39234203 C-151.47690157 389.29129381 -151.49183525 384.19062001 -151.52865028 379.08969307 C-151.67598384 357.85418154 -151.72787299 337.63328261 -146 317 C-145.81317846 316.30049445 -145.62635693 315.6009889 -145.43387413 314.88028622 C-144.48059957 311.32514733 -143.41090531 307.84642054 -142.1875 304.375 C-141.8476709 303.38830322 -141.5078418 302.40160645 -141.15771484 301.38500977 C-138.21394596 293.10218517 -134.6537332 285.45141363 -130 278 C-129.61585938 277.38366699 -129.23171875 276.76733398 -128.8359375 276.13232422 C-121.32405819 264.23750564 -112.81534316 253.19020546 -103.6875 242.5 C-102.88566284 241.53622437 -102.88566284 241.53622437 -102.06762695 240.55297852 C-99.2974947 237.30667186 -96.64025603 234.62257196 -93.10546875 232.21484375 C-89.08084728 229.32287238 -85.67141145 226.81668629 -84 222 C-83.60211933 210.36784153 -86.25016164 196.07058527 -92 186 C-97.98963469 183.00518266 -107.55300508 184.92740486 -114.19702148 185.5144043 C-121.13539172 186.09940899 -127.7596199 186.6019841 -134 183 C-137.25228928 180.07054825 -140.03527042 176.92945915 -142 173 C-142.13356742 169.27495316 -142.24789419 165.55560517 -142.25390625 161.828125 C-142.38644311 157.58694541 -142.59859936 154.98880113 -145.55859375 151.8203125 C-148 149 -148 149 -148.26953125 145.7890625 C-148.04330078 144.22285156 -148.04330078 144.22285156 -147.8125 142.625 C-147.67457031 141.56539062 -147.53664063 140.50578125 -147.39453125 139.4140625 C-147.19923828 138.21910156 -147.19923828 138.21910156 -147 137 C-147.54527344 136.63648438 -148.09054687 136.27296875 -148.65234375 135.8984375 C-150.23587743 134.84274838 -151.81919617 133.78673679 -153.40234375 132.73046875 C-155.12209509 131.58482988 -156.84343015 130.44156451 -158.56640625 129.30078125 C-159.36949219 128.76839844 -160.17257812 128.23601562 -161 127.6875 C-161.7425 127.19636719 -162.485 126.70523438 -163.25 126.19921875 C-165 125 -165 125 -166 124 C-166.61267378 118.6689424 -164.8790366 115.29873586 -162.1875 110.875 C-161.36727918 109.47206112 -160.54833156 108.06837732 -159.73046875 106.6640625 C-159.07183838 105.54499512 -159.07183838 105.54499512 -158.39990234 104.40332031 C-155.86739262 100.05556556 -153.43427078 95.65326654 -151 91.25 C-150.51942139 90.3926123 -150.03884277 89.53522461 -149.54370117 88.65185547 C-148.87238159 87.43973389 -148.87238159 87.43973389 -148.1875 86.203125 C-147.59001953 85.13046387 -147.59001953 85.13046387 -146.98046875 84.03613281 C-145.37478047 80.70161084 -144.86063686 77.67696316 -144.875 74 C-144.87242187 73.34 -144.86984375 72.68 -144.8671875 72 C-144.93491241 70.00541159 -144.93491241 70.00541159 -145.4921875 68.15625 C-148.98173651 53.33908805 -143.54634165 39.21571852 -136.08056641 26.71728516 C-133.41890037 22.48724474 -130.34194169 18.70447975 -127 15 C-126.39800781 14.31679687 -125.79601562 13.63359375 -125.17578125 12.9296875 C-111.70983551 -1.46786455 -93.00413511 -9.92001619 -74 -14 C-73.05511719 -14.22429687 -72.11023438 -14.44859375 -71.13671875 -14.6796875 C-46.94776648 -19.6748601 -19.81192579 -15.10139798 0 0 Z " fill="#101010" transform="translate(625,137)"/>
<path d="M0 0 C0 0.33 0 0.66 0 1 C-10.47916097 1.10262508 -20.95059924 1.08505483 -31.42602539 0.78173828 C-32.54900103 0.7492675 -32.54900103 0.7492675 -33.69466305 0.71614075 C-34.46855657 0.69374329 -35.24245008 0.67134583 -36.03979492 0.64826965 C-61.17043641 -0.0765994 -86.2952732 -0.18768377 -111.43505859 -0.18530273 C-117.3626912 -0.18520007 -123.29020685 -0.19901735 -129.21781158 -0.21607494 C-133.89223747 -0.22730713 -138.56663563 -0.22921878 -143.24107361 -0.22869301 C-145.42537348 -0.22984992 -147.60967464 -0.23413746 -149.79396057 -0.24202538 C-174.82390371 -0.32422141 -200.07933261 0.91011842 -224.3671875 7.37109375 C-231.49532278 9.07380856 -238.70906987 9.11759565 -246 9 C-242.99764342 7.35945155 -240.17167682 6.4418012 -236.84375 5.66796875 C-235.83078857 5.42916992 -234.81782715 5.19037109 -233.77416992 4.94433594 C-232.69369385 4.69458008 -231.61321777 4.44482422 -230.5 4.1875 C-228.23545351 3.65589939 -225.97113322 3.1233344 -223.70703125 2.58984375 C-222.5773291 2.32413574 -221.44762695 2.05842773 -220.28369141 1.78466797 C-216.41447407 0.86008325 -212.56032295 -0.11649612 -208.70703125 -1.10498047 C-141.95717754 -18.19346046 -67.29306325 -8.80857436 0 0 Z " fill="#F4F4F4" transform="translate(591,849)"/>
<path d="M0 0 C0.33 0 0.66 0 1 0 C1.13337127 14.58302822 1.26380119 29.1660806 1.39115143 43.74916267 C1.45040596 50.52744884 1.51052582 57.30572479 1.57275391 64.08398438 C1.90533196 100.3907147 2.07276366 136.69177559 2 173 C2.66 173.33 3.32 173.66 4 174 C2.68 174.99 1.36 175.98 0 177 C0 118.59 0 60.18 0 0 Z " fill="#020202" transform="translate(474,488)"/>
<path d="M0 0 C0.33 0 0.66 0 1 0 C1.68914353 18.97058992 -0.41652621 37.25435538 -3 56 C-4.485 56.495 -4.485 56.495 -6 57 C-6 56.34 -6 55.68 -6 55 C-6.99 55 -7.98 55 -9 55 C-8.86948242 54.3287207 -8.73896484 53.65744141 -8.60449219 52.96582031 C-5.20504057 35.36130468 -2.3879539 17.76888849 0 0 Z " fill="#F0F0F0" transform="translate(667,489)"/>
<path d="M0 0 C21.12 0 42.24 0 64 0 C64 0.33 64 0.66 64 1 C53.605 1.495 53.605 1.495 43 2 C43 2.33 43 2.66 43 3 C38.01953488 3.02487171 33.03910658 3.04294081 28.05859375 3.05493164 C26.36718109 3.05993487 24.67577269 3.06673952 22.984375 3.07543945 C20.54165589 3.08768185 18.09899438 3.09326855 15.65625 3.09765625 C14.91008423 3.10281754 14.16391846 3.10797882 13.3951416 3.11329651 C8.51244027 3.11380862 3.83484201 2.69035046 -1 2 C-0.67 1.34 -0.34 0.68 0 0 Z " fill="#181818" transform="translate(393,899)"/>
<path d="M0 0 C-0.5 1.86328125 -0.5 1.86328125 -2 4 C-4.72777932 4.94216062 -7.19435182 5.61846375 -10 6.1875 C-11.15532227 6.43838379 -11.15532227 6.43838379 -12.33398438 6.69433594 C-20.9410663 8.50768667 -29.21292919 9.14172695 -38 9 C-34.86399604 7.26927864 -31.86992885 6.37192406 -28.38671875 5.5625 C-26.7615332 5.17964844 -26.7615332 5.17964844 -25.10351562 4.7890625 C-23.97623047 4.52867187 -22.84894531 4.26828125 -21.6875 4 C-19.46191215 3.4805676 -17.23664238 2.95977016 -15.01171875 2.4375 C-13.96806152 2.19386719 -12.9244043 1.95023438 -11.84912109 1.69921875 C-9.47978454 1.11774661 -7.16189803 0.46929583 -4.83203125 -0.25 C-2 -1 -2 -1 0 0 Z " fill="#F2F2F3" transform="translate(383,849)"/>
<path d="M0 0 C9.9 0 19.8 0 30 0 C30 0.33 30 0.66 30 1 C36.93 1.495 36.93 1.495 44 2 C44 2.33 44 2.66 44 3 C28.49 3 12.98 3 -3 3 C-2.01 2.67 -1.02 2.34 0 2 C0 1.34 0 0.68 0 0 Z " fill="#1D1D1E" transform="translate(538,849)"/>
<path d="M0 0 C2.5942688 -0.36076355 2.5942688 -0.36076355 5.91845703 -0.34057617 C7.15959259 -0.34034958 8.40072815 -0.34012299 9.67947388 -0.33988953 C11.03892372 -0.32456848 12.39836991 -0.30892047 13.7578125 -0.29296875 C15.1450047 -0.28737427 16.53220283 -0.28310347 17.91940308 -0.28010559 C21.57249281 -0.26864497 25.22522534 -0.23916786 28.87817383 -0.20599365 C32.60493131 -0.17531867 36.33174645 -0.16160579 40.05859375 -0.14648438 C47.37255877 -0.11429886 54.68622936 -0.06308839 62 0 C62 0.33 62 0.66 62 1 C36.755 1.495 36.755 1.495 11 2 C11 2.33 11 2.66 11 3 C6.71 3 2.42 3 -2 3 C-1.34 2.01 -0.68 1.02 0 0 Z " fill="#1D1E1D" transform="translate(438,838)"/>
<path d="M0 0 C0.33 0 0.66 0 1 0 C1.02927632 3.52081558 1.04689119 7.04159939 1.0625 10.5625 C1.07087891 11.55314453 1.07925781 12.54378906 1.08789062 13.56445312 C1.12328453 24.2180173 1.12328453 24.2180173 0 29 C-0.99 29.66 -1.98 30.32 -3 31 C-3.0961625 24.62763195 -2.76649832 18.45599202 -2.0625 12.125 C-1.97548828 11.28453125 -1.88847656 10.4440625 -1.79882812 9.578125 C-1.43411215 6.19572204 -1.08074238 3.24222715 0 0 Z " fill="#EFEFEF" transform="translate(560,433)"/>
<path d="M0 0 C0 0.33 0 0.66 0 1 C-12.50209796 1.21003783 -24.6755128 1.39227481 -37 -1 C-37 -1.33 -37 -1.66 -37 -2 C-25.05156528 -4.41510915 -11.98537094 -1.62219869 0 0 Z " fill="#E9E9E9" transform="translate(591,849)"/>
<path d="M0 0 C1.125 2.0625 1.125 2.0625 2 4 C-1.08325358 4.0582253 -4.16636505 4.09367134 -7.25 4.125 C-8.55904297 4.15013672 -8.55904297 4.15013672 -9.89453125 4.17578125 C-10.73886719 4.18222656 -11.58320312 4.18867187 -12.453125 4.1953125 C-13.22817383 4.20578613 -14.00322266 4.21625977 -14.80175781 4.22705078 C-17.25883539 3.97326556 -18.87311542 3.22444152 -21 2 C-17.87667597 1.46875883 -14.75115646 0.95178867 -11.625 0.4375 C-10.73554687 0.28603516 -9.84609375 0.13457031 -8.9296875 -0.02148438 C-8.07890625 -0.16005859 -7.228125 -0.29863281 -6.3515625 -0.44140625 C-5.56604004 -0.57232666 -4.78051758 -0.70324707 -3.97119141 -0.83813477 C-2 -1 -2 -1 0 0 Z " fill="#EDEDED" transform="translate(635,844)"/>
<path d="M0 0 C0.33 0 0.66 0 1 0 C2.83343335 7.4556867 3.25165491 14.46724957 3.125 22.125 C3.11597656 23.176875 3.10695313 24.22875 3.09765625 25.3125 C3.07435853 27.87524878 3.04165112 30.43749512 3 33 C2.67 33 2.34 33 2 33 C1.67 30.03 1.34 27.06 1 24 C0.67 24 0.34 24 0 24 C0 16.08 0 8.16 0 0 Z " fill="#181818" transform="translate(561,433)"/>
<path d="M0 0 C0.33 0 0.66 0 1 0 C1.02897435 4.27081914 1.04678996 8.54161309 1.0625 12.8125 C1.07087891 14.02744141 1.07925781 15.24238281 1.08789062 16.49414062 C1.09111328 17.65751953 1.09433594 18.82089844 1.09765625 20.01953125 C1.10289307 21.09307861 1.10812988 22.16662598 1.11352539 23.27270508 C1 26 1 26 0 29 C0.061875 30.5159375 0.061875 30.5159375 0.125 32.0625 C0.08375 33.031875 0.0425 34.00125 0 35 C-0.99 35.66 -1.98 36.32 -3 37 C-2.85970581 34.8537974 -2.71261836 32.70803782 -2.5625 30.5625 C-2.48128906 29.36753906 -2.40007813 28.17257812 -2.31640625 26.94140625 C-2 24 -2 24 -1 23 C-0.84259395 21.29436222 -0.74906608 19.58272756 -0.68359375 17.87109375 C-0.64169922 16.83662109 -0.59980469 15.80214844 -0.55664062 14.73632812 C-0.51732422 13.64771484 -0.47800781 12.55910156 -0.4375 11.4375 C-0.39431641 10.34501953 -0.35113281 9.25253906 -0.30664062 8.12695312 C-0.20017932 5.41810436 -0.09816484 2.70916008 0 0 Z " fill="#191919" transform="translate(670,481)"/>
<path d="M0 0 C2.42204038 3.63306058 2.23302891 5.31819023 2.1953125 9.63671875 C2.18886719 10.93544922 2.18242188 12.23417969 2.17578125 13.57226562 C2.1590706 14.94401307 2.14214071 16.31575786 2.125 17.6875 C2.11496674 19.07095718 2.10584149 20.45442127 2.09765625 21.83789062 C2.07404967 25.22543452 2.04112037 28.61263072 2 32 C1.67 32 1.34 32 1 32 C0.67 27.05 0.34 22.1 0 17 C-0.33 17 -0.66 17 -1 17 C-1.02699725 14.72923158 -1.04639453 12.45837179 -1.0625 10.1875 C-1.07990234 8.29064453 -1.07990234 8.29064453 -1.09765625 6.35546875 C-1 3 -1 3 0 0 Z " fill="#1A191A" transform="translate(563,469)"/>
<path d="M0 0 C0.33 0 0.66 0 1 0 C1 7.92 1 15.84 1 24 C0.67 24 0.34 24 0 24 C-0.33 26.31 -0.66 28.62 -1 31 C-1.33 31 -1.66 31 -2 31 C-2.02683987 28.02077407 -2.04676037 25.04178705 -2.0625 22.0625 C-2.07087891 21.21236328 -2.07925781 20.36222656 -2.08789062 19.48632812 C-2.09111328 18.67744141 -2.09433594 17.86855469 -2.09765625 17.03515625 C-2.10289307 16.2862915 -2.10812988 15.53742676 -2.11352539 14.76586914 C-2 13 -2 13 -1 12 C-0.76572222 9.98405418 -0.58663876 7.961526 -0.4375 5.9375 C-0.35371094 4.83277344 -0.26992188 3.72804688 -0.18359375 2.58984375 C-0.12300781 1.73519531 -0.06242188 0.88054687 0 0 Z " fill="#171717" transform="translate(556,452)"/>
<path d="M0 0 C0.66 0.33 1.32 0.66 2 1 C1.54149658 1.31227539 1.08299316 1.62455078 0.6105957 1.94628906 C-1.49018494 3.37879614 -3.58885165 4.8143711 -5.6875 6.25 C-6.40873047 6.74113281 -7.12996094 7.23226562 -7.87304688 7.73828125 C-11.70291788 10.36148057 -15.42141128 13.03548864 -19 16 C-19.66 15.67 -20.32 15.34 -21 15 C-17.34212063 10.90200145 -12.95290963 8.1408662 -8.375 5.1875 C-7.59898437 4.67251953 -6.82296875 4.15753906 -6.0234375 3.62695312 C-5.2809375 3.14548828 -4.5384375 2.66402344 -3.7734375 2.16796875 C-3.09716309 1.72735107 -2.42088867 1.2867334 -1.72412109 0.83276367 C-1.15516113 0.55795166 -0.58620117 0.28313965 0 0 Z " fill="#E5E5E5" transform="translate(349,757)"/>
<path d="M0 0 C-6.37305598 0.74507544 -12.58311325 1.10349817 -19 1 C-16.18207306 -0.52129541 -13.56006978 -1.48478971 -10.4375 -2.1875 C-9.67308594 -2.36667969 -8.90867187 -2.54585937 -8.12109375 -2.73046875 C-4.64362042 -3.17235763 -2.86774602 -1.91183068 0 0 Z " fill="#E2E2E3" transform="translate(364,857)"/>
<path d="M0 0 C0 0.99 0 1.98 0 3 C-1.134375 2.979375 -2.26875 2.95875 -3.4375 2.9375 C-6.81575674 2.58422523 -6.81575674 2.58422523 -8 4 C-9.66617115 4.04063832 -11.33388095 4.042721 -13 4 C-13 3.01 -13 2.02 -13 1 C-8.61414671 0.29826347 -4.44209357 -0.10834375 0 0 Z " fill="#232323" transform="translate(401,850)"/>
<path d="M0 0 C1.79133978 -0.05391993 3.58313899 -0.09275571 5.375 -0.125 C6.37273437 -0.14820313 7.37046875 -0.17140625 8.3984375 -0.1953125 C11 0 11 0 13 2 C9.0186217 3.3271261 5.14954773 3.06915913 1 3 C0.67 2.01 0.34 1.02 0 0 Z " fill="#1D1D1D" transform="translate(500,320)"/>
<path d="M0 0 C1.60080151 4.00200378 0.29279692 7.04556236 -1 11 C-1.99 11 -2.98 11 -4 11 C-3.71890887 9.35232753 -3.42481474 7.70686855 -3.125 6.0625 C-2.96257813 5.14597656 -2.80015625 4.22945312 -2.6328125 3.28515625 C-2.42398438 2.53105469 -2.21515625 1.77695312 -2 1 C-1.34 0.67 -0.68 0.34 0 0 Z " fill="#1A1A1A" transform="translate(651,618)"/>
<path d="M0 0 C0.33 0 0.66 0 1 0 C1.04254356 1.99954746 1.04080783 4.00041636 1 6 C0.67 6.33 0.34 6.66 0 7 C-0.36760731 9.32817964 -0.70241581 11.6618385 -1 14 C-1.66 14 -2.32 14 -3 14 C-2.88617347 12.04098546 -2.75858875 10.0827662 -2.625 8.125 C-2.55539062 7.03445313 -2.48578125 5.94390625 -2.4140625 4.8203125 C-2 2 -2 2 0 0 Z " fill="#171617" transform="translate(668,521)"/>
<path d="M0 0 C3.91211733 1.15585285 6.8745041 2.35534962 10 5 C7.5332355 5.88336837 6.36140628 6.1312406 3.859375 5.22265625 C3.16328125 4.83980469 2.4671875 4.45695313 1.75 4.0625 C1.04359375 3.68222656 0.3371875 3.30195312 -0.390625 2.91015625 C-0.92171875 2.60980469 -1.4528125 2.30945313 -2 2 C-1.34 1.34 -0.68 0.68 0 0 Z " fill="#1A1A1A" transform="translate(732,860)"/>
<path d="M0 0 C4.95 0 9.9 0 15 0 C15.33 0.99 15.66 1.98 16 3 C13.36 3 10.72 3 8 3 C8 2.67 8 2.34 8 2 C5.36 1.67 2.72 1.34 0 1 C0 0.67 0 0.34 0 0 Z " fill="#1B1B1B" transform="translate(505,839)"/>
<path d="M0 0 C0.99 0.33 1.98 0.66 3 1 C1.74057614 2.19959375 0.46704714 3.38439443 -0.8125 4.5625 C-1.87404297 5.55443359 -1.87404297 5.55443359 -2.95703125 6.56640625 C-3.63121094 7.03949219 -4.30539062 7.51257813 -5 8 C-5.99 7.67 -6.98 7.34 -8 7 C-6.74057614 5.80040625 -5.46704714 4.61560557 -4.1875 3.4375 C-3.12595703 2.44556641 -3.12595703 2.44556641 -2.04296875 1.43359375 C-1.36878906 0.96050781 -0.69460938 0.48742187 0 0 Z " fill="#1A1A1B" transform="translate(266,791)"/>
<path d="M0 0 C0.66 0 1.32 0 2 0 C2.29296875 6.0546875 2.29296875 6.0546875 2 8 C1.01 8.66 0.02 9.32 -1 10 C-1.02689216 8.52093108 -1.04634621 7.04172517 -1.0625 5.5625 C-1.07410156 4.73878906 -1.08570313 3.91507812 -1.09765625 3.06640625 C-1 1 -1 1 0 0 Z " fill="#E2E2E3" transform="translate(558,454)"/>
<path d="M0 0 C1.31223496 3.93670488 0.24296256 6.12488144 -1 10 C-1.66 10 -2.32 10 -3 10 C-2.88637738 8.5199159 -2.75877092 7.04089926 -2.625 5.5625 C-2.55539063 4.73878906 -2.48578125 3.91507813 -2.4140625 3.06640625 C-2.27742187 2.38449219 -2.14078125 1.70257812 -2 1 C-1.34 0.67 -0.68 0.34 0 0 Z " fill="#181819" transform="translate(245,826)"/>
<path d="M0 0 C0 3.3 0 6.6 0 10 C-0.99 10 -1.98 10 -3 10 C-3 7.03 -3 4.06 -3 1 C-1 0 -1 0 0 0 Z " fill="#1A1A1B" transform="translate(477,478)"/>
<path d="M0 0 C0.33 0 0.66 0 1 0 C1.33 3.96 1.66 7.92 2 12 C1.01 11.67 0.02 11.34 -1 11 C-1.125 3.375 -1.125 3.375 0 0 Z " fill="#1A1A1A" transform="translate(687,674)"/>
<path d="M0 0 C1.88391785 3.26545761 2.49287967 6.28111761 3 10 C2.01 10.33 1.02 10.66 0 11 C-1.125 3.375 -1.125 3.375 0 0 Z " fill="#161516" transform="translate(685,401)"/>
<path d="M0 0 C3.375 -0.125 3.375 -0.125 7 0 C7.66 0.66 8.32 1.32 9 2 C5.52674819 3.1577506 2.63932552 3.06866652 -1 3 C-0.67 2.01 -0.34 1.02 0 0 Z " fill="#1E1D1D" transform="translate(412,840)"/>
<path d="M0 0 C0.33 0 0.66 0 1 0 C1.33 3.96 1.66 7.92 2 12 C1.01 11.34 0.02 10.68 -1 10 C-1.328125 8.125 -1.328125 8.125 -1.25 6 C-1.22679687 4.948125 -1.22679687 4.948125 -1.203125 3.875 C-1 2 -1 2 0 0 Z " fill="#161617" transform="translate(689,689)"/>
<path d="M0 0 C0.99 0 1.98 0 3 0 C3.375 7.5 3.375 7.5 0 12 C0 8.04 0 4.08 0 0 Z " fill="#1B1B1A" transform="translate(689,488)"/>
<path d="M0 0 C0.99 0 1.98 0 3 0 C3.25 7.625 3.25 7.625 1 11 C0.67 7.37 0.34 3.74 0 0 Z " fill="#191819" transform="translate(537,332)"/>
<path d="M0 0 C2 2 2 2 2.125 5.125 C2.08375 6.07375 2.0425 7.0225 2 8 C1.67 8 1.34 8 1 8 C0.67 9.65 0.34 11.3 0 13 C-0.33 13 -0.66 13 -1 13 C-1.02686553 11.02090602 -1.04633375 9.04171029 -1.0625 7.0625 C-1.07410156 5.96035156 -1.08570313 4.85820313 -1.09765625 3.72265625 C-1 1 -1 1 0 0 Z " fill="#171717" transform="translate(685,554)"/>
<path d="M0 0 C2.76223278 2.76223278 2.57856291 5.20706617 3 9 C2.01 9.495 2.01 9.495 1 10 C-1.125 3.375 -1.125 3.375 0 0 Z " fill="#171718" transform="translate(246,861)"/>
<path d="M0 0 C0.99 0.33 1.98 0.66 3 1 C3 4.3 3 7.6 3 11 C0.2441427 6.86621405 -0.10756445 4.94796454 0 0 Z " fill="#171717" transform="translate(693,736)"/>
<path d="M0 0 C-1.1875 1.5 -1.1875 1.5 -3 3 C-5.6875 3.1875 -5.6875 3.1875 -8 3 C-8.33 2.34 -8.66 1.68 -9 1 C-5.92677456 0.08941469 -3.19902639 -0.08886184 0 0 Z " fill="#171717" transform="translate(551,124)"/>
</svg>
