<?xml version="1.0" encoding="UTF-8"?>
<svg version="1.1" xmlns="http://www.w3.org/2000/svg" width="1024" height="1024">
<path d="M0 0 C337.92 0 675.84 0 1024 0 C1024 337.92 1024 675.84 1024 1024 C686.08 1024 348.16 1024 0 1024 C0 686.08 0 348.16 0 0 Z " fill="#FDFDFD" transform="translate(0,0)"/>
<path d="M0 0 C0.92941406 -0.01160156 1.85882812 -0.02320313 2.81640625 -0.03515625 C13.14817071 0.00807289 21.41130304 2.37614995 29.125 9.375 C29.9603125 10.11169922 29.9603125 10.11169922 30.8125 10.86328125 C39.54423683 19.66050611 39.88705218 33.46998005 40.91943359 45.15429688 C41.26623425 48.90073249 41.7001929 52.63669749 42.125 56.375 C43.445 56.705 44.765 57.035 46.125 57.375 C46.91434679 69.149423 45.4219529 81.50139984 37.5703125 90.7734375 C37.09335937 91.30195313 36.61640625 91.83046875 36.125 92.375 C28.93748047 101.46509823 26.93477281 113.06049459 28.125 124.375 C29.46801446 131.67833481 32.85778479 137.00065685 38.67333984 141.59936523 C44.65614969 145.57633351 51.2454216 147.72875979 58.00799561 149.99597168 C101.4753198 164.62669516 101.4753198 164.62669516 112.8125 184.6875 C119.58232075 199.48081201 121.215406 216.40660573 123.125 232.375 C124.84919469 246.44510196 126.80338815 260.39913521 129.55371094 274.30859375 C130.19073674 277.72784335 130.72276372 281.15712535 131.2578125 284.59375 C133.32732556 300.1136672 133.32732556 300.1136672 142.375 312.125 C143.9750298 313.16780549 145.57795601 314.20853391 147.22419739 315.17674255 C154.97610486 320.06351028 161.53376003 326.53013932 167.87890625 333.07421875 C169.4912675 334.71185339 171.10390596 336.34921514 172.71679688 337.98632812 C175.21091296 340.53011506 177.70165879 343.07703768 180.18725586 345.62915039 C182.61720206 348.11979148 185.05968435 350.59759688 187.50390625 353.07421875 C188.23541397 353.83264572 188.96692169 354.59107269 189.72059631 355.3724823 C195.05404302 360.75684768 201.25285664 366.47012015 209.19140625 366.9296875 C213.8383931 366.27440236 217.02369385 364.78143294 221.0625 362.5 C226.66846115 359.5236125 231.71959024 356.99738799 238.125 356.375 C239.40375 356.21 240.6825 356.045 242 355.875 C247.769813 356.08312953 252.66264336 358.88878388 257.125 362.375 C261.94640722 368.23550361 262.66201464 374.31281765 262.49609375 381.7109375 C262.12351248 384.38567883 261.57737682 386.11115286 260.125 388.375 C259.135 388.87 259.135 388.87 258.125 389.375 C263.07690506 391.62333213 267.89893235 392.04629065 273.26171875 392.6171875 C276.125 393.375 276.125 393.375 277.51953125 395.4453125 C277.71933594 396.08210938 277.91914062 396.71890625 278.125 397.375 C273.42505889 401.90225957 269.59570124 403.44524832 263.25 404.6875 C262.46625 404.85572266 261.6825 405.02394531 260.875 405.19726562 C258.96162964 405.60560686 257.04371125 405.99253974 255.125 406.375 C256.06472656 406.52195312 256.06472656 406.52195312 257.0234375 406.671875 C257.84070313 406.82140625 258.65796875 406.9709375 259.5 407.125 C260.71816406 407.33382812 260.71816406 407.33382812 261.9609375 407.546875 C264.125 408.375 264.125 408.375 265.4140625 410.453125 C265.76597656 411.40445313 265.76597656 411.40445313 266.125 412.375 C263.36499704 415.56224799 261.12380572 415.92613328 256.92578125 416.2421875 C256.00152344 416.28601563 255.07726562 416.32984375 254.125 416.375 C252.98417969 416.43945312 251.84335937 416.50390625 250.66796875 416.5703125 C243.25199924 416.80724443 239.26540967 416.38988325 233.125 412.375 C229.82398775 411.48494929 226.50295921 410.89154909 223.125 410.375 C223.58390625 410.82488281 224.0428125 411.27476562 224.515625 411.73828125 C231.66730315 419.23552368 234.31044409 426.53020533 234.5625 436.875 C234.1987654 448.84186848 230.66800854 461.53740496 222.125 470.375 C221.465 470.375 220.805 470.375 220.125 470.375 C220.125 471.035 220.125 471.695 220.125 472.375 C198.15573126 490.62190094 169.52526089 495.00031905 141.875 494.75 C140.96225311 494.74567963 140.04950623 494.74135925 139.10910034 494.73690796 C122.62529828 494.64609847 106.47621881 493.54233471 90.125 491.375 C88.75059619 491.20080659 87.3760806 491.02749336 86.00146484 490.85498047 C59.48798077 487.50646739 33.21533791 482.70608425 7.33203125 476.00390625 C1.59235112 474.87834169 -3.49704617 475.3154268 -9.13671875 476.73046875 C-10.32281738 477.02066895 -11.50891602 477.31086914 -12.73095703 477.60986328 C-13.99536621 477.9242334 -15.25977539 478.23860352 -16.5625 478.5625 C-41.7664954 484.65052197 -67.28503883 488.55275695 -92.98291016 491.87011719 C-95.27017947 492.1668223 -97.55671458 492.4694862 -99.84130859 492.78613281 C-112.8431034 494.57896138 -125.89748731 494.60348576 -139 494.6875 C-139.88947327 494.69721832 -140.77894653 494.70693665 -141.69537354 494.71694946 C-157.80050702 494.86616398 -173.67321414 493.52400709 -189.125 488.6875 C-189.94726074 488.43331299 -190.76952148 488.17912598 -191.61669922 487.91723633 C-207.58606602 482.74028557 -221.35660686 474.54229964 -229.46875 459.33203125 C-234.64994841 448.43712237 -236.11481078 436.00177385 -232.25 424.375 C-230.43287731 420.04789488 -228.02601473 416.44925054 -225.046875 412.8359375 C-223.77071468 411.5571354 -223.77071468 411.5571354 -223.875 410.375 C-225.23048844 410.80838746 -226.58431276 411.24697995 -227.9375 411.6875 C-228.69160156 411.93113281 -229.44570313 412.17476562 -230.22265625 412.42578125 C-233.02782377 413.37779216 -233.02782377 413.37779216 -236.18359375 414.96484375 C-240.22227055 416.50766102 -243.62647934 416.75522286 -247.875 416.625 C-248.54789062 416.61984375 -249.22078125 416.6146875 -249.9140625 416.609375 C-261.82457108 416.42542892 -261.82457108 416.42542892 -264.875 413.375 C-264.875 412.055 -264.875 410.735 -264.875 409.375 C-261.59947281 407.48527278 -258.5907043 406.93999065 -254.875 406.375 C-256.04417969 406.14425781 -257.21335937 405.91351562 -258.41796875 405.67578125 C-259.96635439 405.34733581 -261.51452039 405.01785378 -263.0625 404.6875 C-263.83142578 404.53861328 -264.60035156 404.38972656 -265.39257812 404.23632812 C-270.71757288 403.07077133 -273.3875257 401.58932265 -276.875 397.375 C-275.125 393.5 -275.125 393.5 -272.875 392.375 C-269.82661333 392.09867142 -266.77845131 391.92841702 -263.72265625 391.75390625 C-260.67770409 391.56132627 -260.67770409 391.56132627 -257.875 389.375 C-258.535 388.55 -259.195 387.725 -259.875 386.875 C-262.33730236 383.07122825 -262.65382317 379.78356785 -261.875 375.375 C-260.5554828 369.41894722 -259.05068145 364.25703119 -254.328125 360.171875 C-245.05334607 354.92107423 -236.46313626 356.04364197 -226.5 358.625 C-221.92807103 360.12667423 -218.66078917 362.43908187 -214.875 365.375 C-210.44135623 366.85288126 -206.35002575 367.25933574 -201.92285156 365.67749023 C-194.09228287 361.60698678 -188.33241779 355.30787185 -182.25 349.0625 C-181.14671453 347.94769493 -180.04255275 346.8337564 -178.9375 345.72070312 C-173.89700058 340.62243253 -168.94326585 335.49221401 -164.32519531 330.00244141 C-161.4727286 326.80133987 -158.15618583 324.12191379 -154.875 321.375 C-153.81191332 320.47334752 -152.74946043 319.57094746 -151.6875 318.66796875 C-149.46870407 316.78341249 -147.2480555 314.90111859 -145.0234375 313.0234375 C-144.50281738 312.5701709 -143.98219727 312.1169043 -143.44580078 311.64990234 C-141.875 310.375 -141.875 310.375 -138.703125 308.4375 C-133.77908114 304.30802143 -133.43267118 296.975611 -132.25 291 C-131.95267424 289.57864081 -131.65391035 288.15758175 -131.35375977 286.73681641 C-130.49378398 282.62252923 -129.68151513 278.50009228 -128.875 274.375 C-128.67664551 273.39208984 -128.47829102 272.40917969 -128.27392578 271.39648438 C-126.22434594 261.15050966 -124.78520524 250.83490329 -123.44140625 240.4765625 C-123.24864357 238.9981337 -123.24864357 238.9981337 -123.05198669 237.48983765 C-122.40358608 232.5034054 -121.76822543 227.51590843 -121.15600586 222.52490234 C-118.7023046 202.96679486 -115.51480612 183.05419642 -99.875 169.375 C-87.76656201 160.55145456 -73.79287831 155.50194942 -59.76171875 150.56640625 C-41.9916933 144.48529545 -41.9916933 144.48529545 -29.8984375 130.70703125 C-25.72495938 121.19723568 -27.49156028 110.26831968 -30.46875 100.65625 C-32.31222588 96.35480629 -34.88826203 93.29918803 -37.97265625 89.82421875 C-41.10512907 85.7912404 -42.49887449 81.24197498 -43.875 76.375 C-44.0709375 75.76914062 -44.266875 75.16328125 -44.46875 74.5390625 C-45.08670755 71.24725015 -44.97848128 67.96024575 -44.9375 64.625 C-44.93298828 63.92761719 -44.92847656 63.23023438 -44.92382812 62.51171875 C-44.9121002 60.79944197 -44.89416653 59.08720967 -44.875 57.375 C-43.885 57.045 -42.895 56.715 -41.875 56.375 C-40.29775321 51.27214275 -39.73883944 46.2065301 -39.22973633 40.91333008 C-38.10012631 29.35433451 -36.50006742 17.92357015 -27.875 9.375 C-19.20290546 2.31182838 -11.01685164 -0.13638468 0 0 Z " fill="#0E0E0E" transform="translate(511.875,320.625)"/>
<path d="M0 0 C0.80201843 0.00126892 1.60403687 0.00253784 2.43035889 0.00384521 C49.94036796 0.14728687 97.10220244 15.13938566 134.375 45.1875 C135.30441406 45.92613281 136.23382812 46.66476563 137.19140625 47.42578125 C145.51521408 54.12881982 153.72950463 60.92615633 160.62109375 69.12890625 C161.82658939 70.54381984 163.07171984 71.92560914 164.34765625 73.27734375 C176.63108445 86.31873304 186.24036809 101.28769494 194.375 117.1875 C194.79910156 118.00589355 195.22320313 118.82428711 195.66015625 119.66748047 C210.64692702 148.84135476 218.8026148 181.12184732 218.63574219 213.93798828 C218.62507027 216.42115017 218.63568081 218.90357928 218.6484375 221.38671875 C218.66451866 237.36931694 217.29106162 253.0271019 213.6875 268.625 C213.42404785 269.77403809 213.1605957 270.92307617 212.88916016 272.10693359 C203.34213599 312.4109786 182.45128848 345.92601784 153.625 375.125 C152.9865918 375.77654053 152.34818359 376.42808105 151.69042969 377.09936523 C148.46152064 380.33377714 145.47894782 383.06503844 141.375 385.1875 C139.09004939 375.65876979 137.89330362 366.18303833 136.9375 356.4375 C134.57571908 332.98294752 130.61488222 307.01273789 112.375 290.1875 C97.51875917 278.1245635 79.86306954 272.06022124 61.97509766 265.95556641 C61.31412079 265.72816269 60.65314392 265.50075897 59.97213745 265.26646423 C58.15598843 264.64293039 56.33734524 264.02667487 54.51855469 263.41088867 C49.20104029 261.34145215 45.78034133 259.49769444 43.375 254.1875 C42.02429935 246.1984721 43.12720284 240.1586147 47.65625 233.50390625 C48.2234375 232.73949219 48.790625 231.97507812 49.375 231.1875 C58.96205586 218.19327969 62.2317482 202.18895597 60.375 186.1875 C59.33614631 182.88099926 58.01759855 179.85177721 56.6015625 176.69140625 C55.08499891 172.35905739 54.72145222 168.30285852 54.375 163.75 C53.0502203 147.59633793 47.34738916 135.62988893 34.87890625 125.0390625 C21.80938693 115.37455055 6.60447734 112.80100456 -9.30859375 114.46875 C-23.80014467 116.88014407 -36.95868186 124.30330846 -45.625 136.1875 C-51.60120334 145.84136693 -54.42559358 155.95334047 -55 167.25 C-55.25971913 171.69408282 -56.18449371 174.66387271 -58.1875 178.625 C-63.46269645 190.29483866 -61.81916298 205.37339986 -57.82421875 217.24609375 C-55.00058695 224.17180954 -51.07100681 230.18521685 -46.859375 236.33984375 C-44.41641498 239.9965529 -44.43030015 242.59902987 -44.375 247 C-44.33632813 248.83498047 -44.33632813 248.83498047 -44.296875 250.70703125 C-44.65527809 254.508664 -45.20176706 256.26006997 -47.625 259.1875 C-50.13671875 260.671875 -50.13671875 260.671875 -53.3125 261.9375 C-53.90627441 262.17936035 -54.50004883 262.4212207 -55.11181641 262.67041016 C-59.15204745 264.29150906 -63.23847358 265.78723855 -67.32421875 267.2890625 C-92.25599367 276.45357308 -116.42695867 286.15680307 -128.2578125 311.71484375 C-137.82885727 334.58857202 -138.73837093 360.82043056 -141.625 385.1875 C-145.41077708 383.41307452 -148.22212583 381.03000408 -151.25 378.1875 C-152.04168579 377.44947144 -152.04168579 377.44947144 -152.84936523 376.6965332 C-154.44716099 375.19966604 -156.03655554 373.69427895 -157.625 372.1875 C-158.48996094 371.37667969 -159.35492188 370.56585937 -160.24609375 369.73046875 C-191.91598361 339.17535901 -210.65204356 296.08890999 -217.625 253.1875 C-217.74214355 252.49543457 -217.85928711 251.80336914 -217.97998047 251.09033203 C-226.87461185 196.30838989 -212.37702088 137.03892028 -180.07763672 92.17333984 C-172.55628435 81.89120872 -164.42607294 72.39497169 -155.625 63.1875 C-154.98949219 62.51074219 -154.35398437 61.83398438 -153.69921875 61.13671875 C-148.75304299 56.00166755 -143.23306291 51.57580922 -137.625 47.1875 C-137.0784375 46.75920898 -136.531875 46.33091797 -135.96875 45.88964844 C-96.80136093 15.46815932 -49.35831012 -0.08026985 0 0 Z " fill="#0E0E0E" transform="translate(512.625,189.8125)"/>
<path d="M0 0 C2.61650496 2.61650496 3.32708415 5.50426871 4.43359375 8.9453125 C4.66735718 9.65531403 4.90112061 10.36531555 5.14196777 11.09683228 C5.64760301 12.6341654 6.15062407 14.17236024 6.65133667 15.71130371 C7.71118062 18.96526038 8.78675857 22.21394082 9.86146545 25.4630127 C10.69416073 27.98107953 11.52497272 30.49976174 12.35546875 33.01855469 C14.63125991 39.91528752 16.91415776 46.80928787 19.2427063 53.68841553 C19.70112443 55.04862893 20.15569921 56.41014447 20.60617065 57.77301025 C26.96512327 77.00090998 37.42130655 86.44906331 54.07104492 97.32861328 C56.40799126 98.85571718 58.73502704 100.3969714 61.06054688 101.94140625 C69.6047268 107.59285429 78.24529357 113.06199205 87.01670837 118.35421753 C91.08221508 120.8083633 95.0707153 123.33263874 99 126 C95.91654946 127.54172527 93.58571958 126.40570085 90.25 125.6875 C77.16328422 123.08768701 63.96599572 122.07817271 50.640625 121.76171875 C49.54970802 121.7347995 49.54970802 121.7347995 48.43675232 121.70733643 C44.81916683 121.62148299 41.20263833 121.55455679 37.58422852 121.51708984 C25.28130018 121.32902088 16.14308534 120.22745108 7.15625 111.3828125 C-5.98376264 96.86214636 -6.39447827 76.64203634 -6.3125 58.0625 C-6.31134186 57.24873901 -6.31018372 56.43497803 -6.30899048 55.59655762 C-6.27224103 42.51247071 -5.37494453 29.8842069 -3 17 C-2.70871474 15.2998585 -2.41965586 13.59933406 -2.1328125 11.8984375 C-1.45546079 7.92559316 -0.74080704 3.96147879 0 0 Z " fill="#FBFBFB" transform="translate(588,585)"/>
<path d="M0 0 C0.33 0 0.66 0 1 0 C5.08958604 19.77294997 7.1688273 38.76186693 7.25 58.9375 C7.25535767 59.68557922 7.26071533 60.43365845 7.26623535 61.20440674 C7.36432226 79.25388387 6.14588771 98.27727195 -7 112 C-16.66815759 120.96073142 -28.35911387 121.24696219 -40.91741943 121.46331787 C-57.38186764 121.7622916 -73.49322083 122.86842608 -89.66162109 126.12255859 C-92.94100504 126.76237965 -94.76846991 127.0771767 -98 126 C-97.45287354 125.66379639 -96.90574707 125.32759277 -96.34204102 124.98120117 C-84.13024752 117.46948817 -71.9577841 109.91131484 -60 102 C-59.20255371 101.47374023 -58.40510742 100.94748047 -57.58349609 100.40527344 C-31.92199849 83.39747798 -22.84623377 67.93563035 -13.33097839 39.05441284 C-10.41918459 30.21881765 -7.41782386 21.41626701 -4.375 12.625 C-4.15299927 11.98318787 -3.93099854 11.34137573 -3.70227051 10.68011475 C-2.47033937 7.11932591 -1.23625142 3.55929108 0 0 Z " fill="#FAFBFB" transform="translate(435,585)"/>
<path d="M0 0 C4.9642048 0.47238677 7.31255709 2.07506566 10.5625 5.8125 C11.875 8.75 11.875 8.75 11.5625 11.8125 C9.61633518 14.49521335 7.49046709 16.26702793 4.5625 17.8125 C-0.83449559 18.00186827 -4.32635796 16.2384517 -8.4375 12.8125 C-9.45898762 10.36603716 -9.56476483 9.21331107 -8.7578125 6.671875 C-6.44150262 2.58426933 -4.91606448 0.25786463 0 0 Z " fill="#F7F7F7" transform="translate(268.4375,689.1875)"/>
<path d="M0 0 C3.95899772 6.11845103 3.95899772 6.11845103 4.125 9.6875 C2.03959217 13.97417165 -1.6449104 15.48102951 -5.9375 17.125 C-9.98559111 16.95977179 -11.81083537 15.57659065 -14.6953125 12.8203125 C-16 11 -16 11 -16.3125 7.375 C-13.30471041 -0.35931609 -7.32157025 -0.58572562 0 0 Z " fill="#FAFAFA" transform="translate(761,690)"/>
<path d="M0 0 C0.33 0 0.66 0 1 0 C1 7.92 1 15.84 1 24 C0.34 24 -0.32 24 -1 24 C-1 26.31 -1 28.62 -1 31 C-1.33 31 -1.66 31 -2 31 C-2 21.43 -2 11.86 -2 2 C-1.34 2 -0.68 2 0 2 C0 1.34 0 0.68 0 0 Z " fill="#1B1B1B" transform="translate(444,634)"/>
<path d="M0 0 C0.66 0.33 1.32 0.66 2 1 C1.835 2.010625 1.67 3.02125 1.5 4.0625 C0.91995495 7.96883492 0.91995495 7.96883492 1 11.8125 C1 15 1 15 0 17 C-0.66 17 -1.32 17 -2 17 C-1.85978195 14.35375716 -1.71310224 11.70815422 -1.5625 9.0625 C-1.52318359 8.30775391 -1.48386719 7.55300781 -1.44335938 6.77539062 C-1.11328125 1.11328125 -1.11328125 1.11328125 0 0 Z " fill="#1A1A1A" transform="translate(475,349)"/>
<path d="M0 0 C1.28429711 2.56859422 0.68569631 3.25721476 0 6 C-0.06743348 8.08234592 -0.08514472 10.16668557 -0.0625 12.25 C-0.04896484 13.86648438 -0.04896484 13.86648438 -0.03515625 15.515625 C-0.02355469 16.33546875 -0.01195312 17.1553125 0 18 C-2.79262967 15.60631743 -2.98103758 15.18962422 -3.375 11.25 C-3.23161981 6.9485943 -1.91152335 3.8230467 0 0 Z " fill="#1D1D1D" transform="translate(253,689)"/>
<path d="M0 0 C7.24579719 -0.67090715 11.75838097 1.41874318 18 5 C18 5.99 18 6.98 18 8 C12.45045045 6.36036036 12.45045045 6.36036036 10.125 4.5 C6.96945929 2.2725595 3.76185477 1.81506853 0 1 C0 0.67 0 0.34 0 0 Z " fill="#1C1C1D" transform="translate(750,677)"/>
<path d="M0 0 C0.66 0.33 1.32 0.66 2 1 C2 1.66 2 2.32 2 3 C1.01 3.495 1.01 3.495 0 4 C0.99 4.33 1.98 4.66 3 5 C3 5.99 3 6.98 3 8 C0.625 8.125 0.625 8.125 -2 8 C-2.66 7.34 -3.32 6.68 -4 6 C-4 4.68 -4 3.36 -4 2 C-2.125 0.9375 -2.125 0.9375 0 0 Z " fill="#19191A" transform="translate(251,728)"/>
<path d="M0 0 C4.41217199 0.36165344 8.67443132 1.05378185 13 2 C13 2.99 13 3.98 13 5 C8.05 4.01 3.1 3.02 -2 2 C-1.34 1.34 -0.68 0.68 0 0 Z " fill="#171717" transform="translate(531,797)"/>
<path d="M0 0 C1.65 0 3.3 0 5 0 C5 0.66 5 1.32 5 2 C8.465 1.505 8.465 1.505 12 1 C12.33 1.99 12.66 2.98 13 4 C9.04 3.67 5.08 3.34 1 3 C0.67 2.01 0.34 1.02 0 0 Z " fill="#19191A" transform="translate(601,809)"/>
<path d="M0 0 C1.0209375 0.02513672 1.0209375 0.02513672 2.0625 0.05078125 C3.0834375 0.05658203 3.0834375 0.05658203 4.125 0.0625 C6.0625 0.36328125 6.0625 0.36328125 9.0625 2.36328125 C4.4425 2.69328125 -0.1775 3.02328125 -4.9375 3.36328125 C-1.9375 0.36328125 -1.9375 0.36328125 0 0 Z " fill="#181818" transform="translate(429.9375,807.63671875)"/>
<path d="M0 0 C0.33 0 0.66 0 1 0 C1.33 3.96 1.66 7.92 2 12 C1.01 11.67 0.02 11.34 -1 11 C-1.125 3.375 -1.125 3.375 0 0 Z " fill="#1F1F1F" transform="translate(632,537)"/>
<path d="M0 0 C-0.33 3.96 -0.66 7.92 -1 12 C-3.10814567 7.78370866 -3.17700355 5.60209225 -3 1 C-1 0 -1 0 0 0 Z " fill="#181818" transform="translate(730,433)"/>
<path d="M0 0 C4.51478398 0.53115106 7.34666857 2.36620292 11 5 C10.01 5.66 9.02 6.32 8 7 C7.67 6.34 7.34 5.68 7 5 C5.35448038 4.28272222 3.68577711 3.61674772 2 3 C1.34 2.67 0.68 2.34 0 2 C0 1.34 0 0.68 0 0 Z " fill="#171717" transform="translate(600,484)"/>
<path d="M0 0 C0.99 0.33 1.98 0.66 3 1 C3.73046875 3.06640625 3.73046875 3.06640625 4.1875 5.5625 C4.34605469 6.38878906 4.50460937 7.21507812 4.66796875 8.06640625 C4.77753906 8.70449219 4.88710938 9.34257812 5 10 C4.01 10 3.02 10 2 10 C1.34 6.7 0.68 3.4 0 0 Z " fill="#161616" transform="translate(450,399)"/>
<path d="M0 0 C0.66 0.33 1.32 0.66 2 1 C2 4.3 2 7.6 2 11 C-1 8 -1 8 -1.25 4.9375 C-1 2 -1 2 0 0 Z " fill="#222223" transform="translate(442,618)"/>
<path d="M0 0 C1.25541557 3.76624671 0.37061958 5.37188934 -1 9 C-1.66 9 -2.32 9 -3 9 C-2.4140625 2.84765625 -2.4140625 2.84765625 -2 1 C-1.34 0.67 -0.68 0.34 0 0 Z " fill="#191818" transform="translate(396,522)"/>
<path d="M0 0 C3.92300495 2.35380297 4.83857315 4.64464931 6 9 C5.01 9 4.02 9 3 9 C0 3.375 0 3.375 0 0 Z " fill="#1A1A1A" transform="translate(637,493)"/>
<path d="M0 0 C5.75 1.75 5.75 1.75 8 4 C6.25 4.6875 6.25 4.6875 4 5 C1.75 3.6875 1.75 3.6875 0 2 C0 1.34 0 0.68 0 0 Z " fill="#1F1F1F" transform="translate(607,211)"/>
</svg>
