<?xml version="1.0" encoding="UTF-8"?>
<svg version="1.1" xmlns="http://www.w3.org/2000/svg" width="1024" height="1024">
<path d="M0 0 C337.92 0 675.84 0 1024 0 C1024 337.92 1024 675.84 1024 1024 C686.08 1024 348.16 1024 0 1024 C0 686.08 0 348.16 0 0 Z " fill="#FDFDFD" transform="translate(0,0)"/>
<path d="M0 0 C5.86285992 4.76565173 10.28584708 9.95845582 14.11230469 16.44726562 C14.49773438 17.07890625 14.88316406 17.71054688 15.28027344 18.36132812 C16.3835789 20.34812341 17.25875364 22.34086284 18.11230469 24.44726562 C18.48484375 25.30191406 18.85738281 26.1565625 19.24121094 27.03710938 C25.69362657 44.86556094 23.86541428 67.59653631 18.11230469 85.44726562 C17.78286865 86.48778076 17.78286865 86.48778076 17.44677734 87.54931641 C14.72874783 95.90345807 11.31676 103.43026133 6.62792969 110.89648438 C-0.40581271 122.73420031 0.47955297 140.28063401 3.61230469 153.32226562 C7.90730947 166.94021593 15.94147143 178.32227075 23.75244141 190.10458374 C29.60011386 198.94112604 34.90959133 207.71080501 39.11230469 217.44726562 C39.38574707 218.06617676 39.65918945 218.68508789 39.94091797 219.32275391 C41.95472408 223.94753117 43.64222776 228.62253948 45.11230469 233.44726562 C45.3240332 234.14158691 45.53576172 234.8359082 45.75390625 235.55126953 C58.53871664 280.48045659 44.97521283 333.87977936 38.32348633 378.90844727 C34.31123555 406.16995514 31.18566827 433.20849422 30.66729736 460.76525879 C30.57352686 465.65818483 30.46293686 470.55074039 30.35449219 475.44335938 C30.31248597 477.35595672 30.2704934 479.26855437 30.22851562 481.18115234 C30.20865601 482.0800116 30.18879639 482.97887085 30.16833496 483.90496826 C30.13321998 485.49826265 30.09842084 487.09156407 30.06408691 488.68487549 C28.576891 557.04495611 28.576891 557.04495611 6.11230469 580.44726562 C-15.16789203 600.53922801 -43.75076446 600.84612125 -71.26269531 600.75976562 C-72.39009125 600.75893982 -73.51748718 600.75811401 -74.67904663 600.75726318 C-104.14905405 600.70895878 -133.58449675 599.40125388 -163.02038574 598.09286499 C-171.78987138 597.70395949 -180.55972811 597.3396778 -189.33154297 597.00708008 C-218.04333836 595.91027357 -246.71062091 594.37699534 -275.387146 592.58685303 C-279.80283751 592.31232846 -284.21880768 592.04244343 -288.63479233 591.77268124 C-293.9848156 591.44573619 -299.33470796 591.11667576 -304.68457031 590.78710938 C-305.6719091 590.72636671 -306.65924789 590.66562405 -307.67650604 590.6030407 C-324.98101036 589.5354262 -324.98101036 589.5354262 -333.19702148 588.88061523 C-340.94584101 588.26671791 -348.67936722 588.11591648 -356.45019531 588.07226562 C-357.277854 588.06703888 -358.1055127 588.06181213 -358.95825195 588.056427 C-374.86178541 588.0109506 -390.44354809 589.50037171 -406.19848633 591.58056641 C-425.91006287 594.16391777 -445.6481956 594.67851525 -465.51269531 594.69726562 C-466.4829364 594.69893738 -467.45317749 594.70060913 -468.45281982 594.70233154 C-507.08715057 594.70616333 -545.7306738 592.53703212 -584.31738281 590.80273438 C-585.91073959 590.73161438 -585.91073959 590.73161438 -587.5362854 590.65905762 C-592.2249719 590.44937999 -596.91328403 590.23522548 -601.60107422 590.00634766 C-624.99177008 588.18652056 -624.99177008 588.18652056 -647.76269531 592.19726562 C-649.51648707 592.7471101 -651.27039396 593.29658751 -653.02441406 593.84570312 C-654.64610321 594.37774592 -656.26723797 594.9114828 -657.88769531 595.44726562 C-668.99753167 599.05425396 -682.10437343 602.38755144 -693.62988281 598.52929688 C-695.67723595 597.33565137 -697.22012399 596.12373066 -698.88769531 594.44726562 C-699.79519531 593.56039062 -700.70269531 592.67351563 -701.63769531 591.75976562 C-707.10576375 584.56152617 -708.74001692 575.27073985 -710.57519531 566.63476562 C-714.50787846 549.38450036 -721.71780112 534.48650604 -730.06201172 518.98950195 C-734.09516409 511.35989422 -736.85053312 503.81815029 -738.88769531 495.44726562 C-739.13003906 494.50882813 -739.37238281 493.57039063 -739.62207031 492.60351562 C-741.07790727 485.75714723 -741.1493054 478.79657522 -741.26269531 471.82226562 C-741.28887939 470.85603271 -741.31506348 469.8897998 -741.34204102 468.89428711 C-741.35769277 462.10084682 -740.17898424 456.44560376 -736.88769531 450.44726562 C-733.35484125 446.99852714 -730.53900553 445.28068809 -725.63769531 444.94726562 C-724.89003906 444.87507813 -724.14238281 444.80289062 -723.37207031 444.72851562 C-718.51800152 446.13283741 -715.97188112 450.56743368 -713.54101562 454.78222656 C-712.19882175 457.36025177 -710.9131891 459.96064137 -709.63769531 462.57226562 C-705.16855723 471.39494743 -700.35003017 478.95516033 -693.88769531 486.44726562 C-693.12585938 487.33542969 -692.36402344 488.22359375 -691.57910156 489.13867188 C-689.39284406 491.62047198 -687.15676289 494.04116733 -684.88769531 496.44726562 C-684.19289063 497.20652344 -683.49808594 497.96578125 -682.78222656 498.74804688 C-674.67323439 507.30015337 -665.18539079 513.4858754 -654.76269531 518.82226562 C-654.14257568 519.14396729 -653.52245605 519.46566895 -652.88354492 519.79711914 C-643.99522696 524.16677565 -635.00359035 526.01402293 -625.13769531 525.94726562 C-623.53196655 525.93759766 -623.53196655 525.93759766 -621.89379883 525.92773438 C-608.12110031 525.6345546 -594.54054139 523.56611627 -580.91767883 521.67817688 C-568.53641058 519.96956988 -556.1329645 518.43453385 -543.73059082 516.88816833 C-541.69678297 516.63433975 -539.66307472 516.37972717 -537.62939453 516.12487793 C-512.94842362 513.03300784 -488.24985704 510.09923459 -463.54125977 507.23706055 C-456.97614635 506.47629435 -450.4127258 505.70186371 -443.85031128 504.91815186 C-441.13643381 504.59565592 -438.42236914 504.27651823 -435.70755005 503.96221924 C-432.2150087 503.55718518 -428.72424383 503.13901137 -425.2342701 502.71244049 C-423.31222167 502.48045269 -421.38872522 502.26055875 -419.4651947 502.04119873 C-410.11364716 500.87980675 -401.45092587 498.55566543 -392.62513733 495.27081299 C-377.71898225 489.83909308 -360.94683237 489.76471498 -345.24707031 488.46679688 C-343.10474831 488.28799791 -340.96243482 488.10909692 -338.82012939 487.93009949 C-334.36611944 487.55885458 -329.91189449 487.19032437 -325.45751953 486.82348633 C-319.74739371 486.35279217 -314.03808239 485.8728789 -308.32891464 485.39072132 C-303.92159705 485.01991417 -299.5137997 484.65508584 -295.10584259 484.29196739 C-292.9989077 484.11745394 -290.89214867 483.94080361 -288.78557587 483.76197243 C-285.85492319 483.51384729 -282.92370338 483.27405443 -279.9921875 483.03637695 C-278.69093178 482.92348831 -278.69093178 482.92348831 -277.36338806 482.80831909 C-276.1655645 482.71374672 -276.1655645 482.71374672 -274.94354248 482.61726379 C-274.25269939 482.55994489 -273.56185631 482.50262598 -272.85007858 482.44357014 C-267.70658175 482.45325618 -265.59821405 484.44059423 -262.01269531 488.00976562 C-244.80640736 504.349571 -221.43700796 510.1051225 -198.26269531 509.88476562 C-197.55094147 509.88105957 -196.83918762 509.87735352 -196.10586548 509.87353516 C-181.89408396 509.76969186 -168.09978028 508.25648221 -154.09130859 505.82739258 C-151.68086455 505.41158697 -149.2687889 505.00619754 -146.85644531 504.6015625 C-107.90156662 498.03502794 -71.11780821 489.53550102 -34.88769531 473.44726562 C-35.8211377 473.77412354 -36.75458008 474.10098145 -37.71630859 474.43774414 C-41.34581659 475.70390948 -44.98226431 476.9491687 -48.62060547 478.18969727 C-50.16343416 478.71861761 -51.70459582 479.25243811 -53.24365234 479.79223633 C-78.31464736 488.57289959 -104.40837799 493.33053537 -130.52270508 497.79394531 C-136.49273931 498.81641713 -142.45947966 499.85807813 -148.42675781 500.89648438 C-149.68683655 501.11456757 -150.94691528 501.33265076 -152.24517822 501.55734253 C-160.34160768 502.9685947 -168.40934342 504.48037238 -176.44473267 506.20768738 C-195.40180033 510.19080159 -214.36694975 509.10837073 -231.88769531 500.44726562 C-232.79777344 500.02832031 -233.70785156 499.609375 -234.64550781 499.17773438 C-244.53502295 494.28932732 -255.81474982 485.45444325 -260.88769531 475.44726562 C-261.8945967 472.33740874 -262.35104003 469.69685657 -261.88769531 466.44726562 C-259.88769531 463.38476562 -259.88769531 463.38476562 -256.88769531 461.44726562 C-251.70166582 461.05267642 -247.58435915 461.95705727 -242.63769531 463.44726562 C-236.38801233 465.153684 -230.42708811 465.88584902 -223.95019531 465.94726562 C-223.18223633 465.9653125 -222.41427734 465.98335937 -221.62304688 466.00195312 C-215.66573047 465.94024592 -211.14151846 464.17717048 -205.88769531 461.44726562 C-206.80583008 461.43791992 -207.72396484 461.42857422 -208.66992188 461.41894531 C-212.08474809 461.37486631 -215.49832639 461.3132283 -218.91259766 461.23974609 C-220.38871727 461.21156474 -221.864987 461.19033597 -223.34130859 461.17626953 C-225.46692588 461.15479865 -227.5907441 461.1081352 -229.71582031 461.05664062 C-230.99360352 461.03569336 -232.27138672 461.01474609 -233.58789062 460.99316406 C-237.41376206 460.36023653 -238.62871209 459.55145611 -240.88769531 456.44726562 C-241.45019531 452.94726562 -241.45019531 452.94726562 -240.88769531 449.44726562 C-232.03612855 440.74460372 -215.59333429 438.52314739 -203.63769531 438.07226562 C-188.73086638 438.38905774 -176.56180085 444.69291752 -163.7800293 451.58349609 C-163.08337158 451.94846191 -162.38671387 452.31342773 -161.66894531 452.68945312 C-161.04181641 453.02315918 -160.4146875 453.35686523 -159.76855469 453.70068359 C-152.83380635 456.45333941 -144.84429859 452.21672713 -138.48535156 449.49804688 C-116.15886596 439.65561719 -94.44809145 428.38212439 -73.62988281 415.65039062 C-71.23279115 414.1947067 -68.97199002 413.03345697 -66.39550781 411.86914062 C-63.18085081 410.31498075 -61.24571364 409.12562482 -58.88769531 406.44726562 C-58.32814376 403.1208049 -58.32814376 403.1208049 -58.58300781 399.28149414 C-58.6023085 398.54436219 -58.62160919 397.80723024 -58.64149475 397.04776096 C-58.68502357 395.40459201 -58.73767552 393.7616473 -58.79794312 392.11900711 C-58.9254519 388.32332843 -58.97169316 384.52755334 -59.02532959 380.73022366 C-59.10650644 375.20718116 -59.2188988 369.68471511 -59.32519531 364.16210938 C-59.37017433 361.76502233 -59.41501237 359.36793264 -59.4597168 356.97084045 C-59.57668366 350.71895693 -59.69554193 344.46711081 -59.81481934 338.215271 C-59.93662724 331.81280667 -60.05661152 325.41030818 -60.17675781 319.0078125 C-60.41197098 306.48759647 -60.64918607 293.96741927 -60.88769531 281.44726562 C-61.94783155 291.77536616 -62.9468798 302.10767513 -63.88769531 312.44726562 C-63.9756134 313.39210815 -64.06353149 314.33695068 -64.15411377 315.3104248 C-65.02121274 325.13754649 -64.832234 334.79420101 -64.28070068 344.63317871 C-63.98337022 349.96607411 -63.76869191 355.30170076 -63.57070541 360.63912201 C-63.41833629 364.57788606 -63.21508455 368.50186227 -62.90576172 372.43164062 C-61.30308833 393.39143675 -61.30308833 393.39143675 -64.88769531 402.44726562 C-71.15855656 409.72405063 -79.68876276 413.40330495 -88.45437622 416.9871521 C-93.67272717 419.2063996 -98.48742862 422.04891839 -103.38769531 424.88476562 C-128.09050831 438.33170378 -128.09050831 438.33170378 -136.88769531 440.44726562 C-137.706122 424.55437915 -138.0630869 408.69984272 -138.09082031 392.78710938 C-138.09364769 391.66620974 -138.09647507 390.5453101 -138.09938812 389.3904438 C-138.1142111 383.47114975 -138.12354958 377.55187906 -138.12792969 371.63256836 C-138.13342567 365.59645658 -138.15752701 359.56056899 -138.18590164 353.52452755 C-138.2047024 348.80643616 -138.20974255 344.08839733 -138.21126556 339.37027168 C-138.21424747 337.14719973 -138.22211978 334.92412766 -138.23545074 332.70109367 C-138.47350249 290.00254125 -127.18601658 253.69468009 -99.88769531 220.44726562 C-99.4495752 219.91294922 -99.01145508 219.37863281 -98.56005859 218.828125 C-97.19769253 217.17385839 -95.82591493 215.52793895 -94.45019531 213.88476562 C-94.0005542 213.34335937 -93.55091309 212.80195313 -93.08764648 212.24414062 C-90.76931566 209.49795626 -88.40479136 206.9471611 -85.74707031 204.52539062 C-80.88840172 199.99390252 -77.34769644 196.29804343 -77.08618164 189.36425781 C-77.16790839 186.02546832 -77.50340585 182.7661292 -77.88769531 179.44726562 C-77.91476562 178.07441406 -77.91476562 178.07441406 -77.94238281 176.67382812 C-78.09543129 171.69125003 -79.56147744 168.58800381 -82.87695312 164.8894043 C-86.87038303 162.0252481 -91.49741222 162.81843492 -96.20019531 163.13476562 C-112.67366348 163.93548508 -112.67366348 163.93548508 -119.26269531 160.04492188 C-119.79894531 159.53832031 -120.33519531 159.03171875 -120.88769531 158.50976562 C-121.72300781 157.75373047 -121.72300781 157.75373047 -122.57519531 156.98242188 C-126.12500119 152.83041679 -124.87364687 146.89911842 -124.67285156 141.78320312 C-124.58146653 137.03118148 -125.07845936 134.44230972 -127.88769531 130.44726562 C-129.16681994 126.90957237 -128.98752893 123.43062706 -128.95019531 119.69726562 C-128.94117188 118.52679688 -128.93214844 117.35632813 -128.92285156 116.15039062 C-128.90544922 114.81234375 -128.90544922 114.81234375 -128.88769531 113.44726562 C-129.46777344 113.34929687 -130.04785156 113.25132812 -130.64550781 113.15039062 C-135.97608471 112.13001617 -139.63563374 110.84891488 -143.88769531 107.44726562 C-145.30412689 104.61440248 -145.1423357 102.5953735 -144.88769531 99.44726562 C-143.55834961 96.65820313 -143.55834961 96.65820313 -141.71191406 93.82226562 C-140.71708008 92.26765625 -140.71708008 92.26765625 -139.70214844 90.68164062 C-139.00025391 89.61429687 -138.29835938 88.54695313 -137.57519531 87.44726562 C-136.20182554 85.32373589 -134.8306589 83.19877935 -133.46191406 81.07226562 C-132.84920654 80.13640625 -132.23649902 79.20054687 -131.60522461 78.23632812 C-128.75269318 73.60415768 -126.52139142 69.88438723 -126.51660156 64.35742188 C-126.50234131 63.41584229 -126.48808105 62.4742627 -126.47338867 61.50415039 C-126.46190796 60.02192993 -126.46190796 60.02192993 -126.45019531 58.50976562 C-125.8903227 38.64598433 -120.03618264 20.21582032 -105.67285156 5.99804688 C-77.89223335 -19.44479141 -30.26082889 -23.31177143 0 0 Z " fill="#0F0F0F" transform="translate(853.8876953125,232.552734375)"/>
<path d="M0 0 C-40.82584979 17.00793483 -81.4265819 26.65517073 -125 34 C-126.24604004 34.21205078 -127.49208008 34.42410156 -128.77587891 34.64257812 C-141.31082361 36.70791937 -153.69561011 37.26367611 -166.375 37.3125 C-167.08304779 37.31644775 -167.79109558 37.32039551 -168.52059937 37.32446289 C-176.53515925 37.34598069 -184.20487299 37.02952115 -192 35 C-191.67 33.68 -191.34 32.36 -191 31 C-190.14277344 31.13277344 -189.28554688 31.26554688 -188.40234375 31.40234375 C-186.04206276 31.76689673 -183.68136649 32.12876871 -181.3203125 32.48828125 C-178.98145736 32.8487401 -176.6456927 33.22954361 -174.3125 33.625 C-166.73808187 34.4824813 -159.32786076 34.00518066 -151.8125 32.875 C-150.91853516 32.74375732 -150.02457031 32.61251465 -149.10351562 32.47729492 C-140.06067412 31.09693535 -131.09712257 29.32614146 -122.12670898 27.54223633 C-114.10839893 25.95380115 -106.07858372 24.46861384 -98.0234375 23.078125 C-69.0390522 18.07396514 -40.86465099 12.58228504 -13.1628418 2.4675293 C-12.17680717 2.11189156 -12.17680717 2.11189156 -11.17085266 1.74906921 C-9.38363184 1.10237321 -7.60059846 0.44413813 -5.81787109 -0.21484375 C-3 -1 -3 -1 0 0 Z " fill="#F2F2F2" transform="translate(822,706)"/>
<path d="M0 0 C1.32637487 2.65274973 1.07956818 4.5821666 1.02172852 7.55126953 C1.00163223 8.71232208 0.98153595 9.87337463 0.96083069 11.0696106 C0.93379562 12.32796722 0.90676056 13.58632385 0.87890625 14.8828125 C0.85529526 16.16735321 0.83168427 17.45189392 0.80735779 18.77536011 C0.74450505 22.19164851 0.67544189 25.60778441 0.60510254 29.02392578 C0.53442976 32.50936941 0.46960649 35.99492123 0.40429688 39.48046875 C0.27526927 46.3204301 0.13968312 53.16024819 0 60 C0.66 60.33 1.32 60.66 2 61 C2 78.82 2 96.64 2 115 C1.01 115.495 1.01 115.495 0 116 C-1.68991065 113.04484258 -2.25064457 110.92906673 -2.25396729 107.53518677 C-2.26242676 106.20209473 -2.26242676 106.20209473 -2.27105713 104.84207153 C-2.26498444 103.39101517 -2.26498444 103.39101517 -2.25878906 101.91064453 C-2.2622937 100.8858197 -2.26579834 99.86099487 -2.26940918 98.80511475 C-2.27821795 95.4142786 -2.27237939 92.02365081 -2.265625 88.6328125 C-2.2669721 86.27635661 -2.26891301 83.91990099 -2.27142334 81.56344604 C-2.27437362 76.62218584 -2.27008075 71.6809979 -2.26074219 66.73974609 C-2.24936028 60.40896904 -2.25589983 54.07836181 -2.26788712 47.74759102 C-2.27511892 42.87998173 -2.27281148 38.0124126 -2.26763153 33.14480209 C-2.26629805 30.81083023 -2.26793221 28.47685471 -2.27259064 26.14288712 C-2.27767607 22.87787494 -2.26991645 19.61313637 -2.25878906 16.34814453 C-2.26283752 15.38482208 -2.26688599 14.42149963 -2.27105713 13.4289856 C-2.24028737 8.54934145 -1.91423546 4.57871489 0 0 Z " fill="#191819" transform="translate(718,538)"/>
<path d="M0 0 C20.46 0 40.92 0 62 0 C62 0.33 62 0.66 62 1 C57.545 1.495 57.545 1.495 53 2 C53 2.33 53 2.66 53 3 C37.16 3 21.32 3 5 3 C5 2.67 5 2.34 5 2 C3.35 1.67 1.7 1.34 0 1 C0 0.67 0 0.34 0 0 Z " fill="#151615" transform="translate(356,824)"/>
<path d="M0 0 C0.33 0 0.66 0 1 0 C1 16.17 1 32.34 1 49 C0.67 49 0.34 49 0 49 C-0.33 50.98 -0.66 52.96 -1 55 C-1.33 55 -1.66 55 -2 55 C-2.02467609 49.48242521 -2.04284856 43.96488239 -2.05493164 38.44726562 C-2.05996763 36.56933025 -2.06679671 34.6913988 -2.07543945 32.81347656 C-2.08753713 30.11782868 -2.09323557 27.42223253 -2.09765625 24.7265625 C-2.10281754 23.88380768 -2.10797882 23.04105286 -2.11329651 22.17276001 C-2.11387171 16.22774341 -2.11387171 16.22774341 -1 14 C-0.76970044 11.62876754 -0.58880058 9.25258057 -0.4375 6.875 C-0.35371094 5.59367188 -0.26992188 4.31234375 -0.18359375 2.9921875 C-0.09271484 1.51105469 -0.09271484 1.51105469 0 0 Z " fill="#161516" transform="translate(883,670)"/>
<path d="M0 0 C0.66 0 1.32 0 2 0 C2.29743797 24.48905958 2.29743797 24.48905958 -0.54296875 27.796875 C-1.02378906 28.19390625 -1.50460937 28.5909375 -2 29 C-2.02696365 27.20841511 -2.04637917 25.41671527 -2.0625 23.625 C-2.07410156 22.62726562 -2.08570313 21.62953125 -2.09765625 20.6015625 C-2 18 -2 18 -1 16 C-1 14.68 -1 13.36 -1 12 C-1 8 -1 8 0 6 C0.039992 4.00039988 0.04346799 1.99952758 0 0 Z " fill="#1D1D1E" transform="translate(789,519)"/>
<path d="M0 0 C0.33 0 0.66 0 1 0 C1 10.56 1 21.12 1 32 C0.67 32 0.34 32 0 32 C-0.33 30.02 -0.66 28.04 -1 26 C-1.33 26 -1.66 26 -2 26 C-2.3690205 8.14350797 -2.3690205 8.14350797 0 0 Z " fill="#282828" transform="translate(797,596)"/>
<path d="M0 0 C0.33 0 0.66 0 1 0 C1 10.56 1 21.12 1 32 C0.67 32 0.34 32 0 32 C-0.33 27.38 -0.66 22.76 -1 18 C-1.33 18 -1.66 18 -2 18 C-1.03644647 5.33029613 -1.03644647 5.33029613 0 0 Z " fill="#E3E3E2" transform="translate(793,508)"/>
<path d="M0 0 C3.12482562 -0.08687496 6.24934246 -0.14034568 9.375 -0.1875 C10.70917969 -0.22520508 10.70917969 -0.22520508 12.0703125 -0.26367188 C13.34648438 -0.27817383 13.34648438 -0.27817383 14.6484375 -0.29296875 C15.82672119 -0.31653442 15.82672119 -0.31653442 17.02880859 -0.34057617 C17.67930176 -0.22818604 18.32979492 -0.1157959 19 0 C19.66 0.99 20.32 1.98 21 3 C18.06195004 3.08086376 15.12611925 3.1404283 12.1875 3.1875 C11.35412109 3.21263672 10.52074219 3.23777344 9.66210938 3.26367188 C8.45844727 3.27817383 8.45844727 3.27817383 7.23046875 3.29296875 C6.12288208 3.31653442 6.12288208 3.31653442 4.99291992 3.34057617 C2.47769478 2.91074167 1.60558484 1.92536938 0 0 Z " fill="#1F1F1F" transform="translate(694,828)"/>
<path d="M0 0 C0.99 0.33 1.98 0.66 3 1 C3 6.94 3 12.88 3 19 C2.01 19.33 1.02 19.66 0 20 C-0.66 19.34 -1.32 18.68 -2 18 C-1.34 18 -0.68 18 0 18 C0 12.06 0 6.12 0 0 Z " fill="#444445" transform="translate(786,616)"/>
<path d="M0 0 C0 0.66 0 1.32 0 2 C-0.58007812 1.98839844 -1.16015625 1.97679687 -1.7578125 1.96484375 C-5.31665218 1.92373504 -8.61175779 1.9301164 -12.125 2.5625 C-15.60565028 3.09216417 -18.55242894 2.62056279 -22 2 C-22 1.67 -22 1.34 -22 1 C-19.08418447 0.63702296 -16.16774334 0.28431765 -13.25 -0.0625 C-12.0125 -0.2181543 -12.0125 -0.2181543 -10.75 -0.37695312 C-9.95078125 -0.47041016 -9.1515625 -0.56386719 -8.328125 -0.66015625 C-7.5949707 -0.74918213 -6.86181641 -0.83820801 -6.10644531 -0.92993164 C-3.87729995 -1.00408147 -2.12666985 -0.64094299 0 0 Z " fill="#171717" transform="translate(418,738)"/>
<path d="M0 0 C6.6 0 13.2 0 20 0 C20 0.99 20 1.98 20 3 C15.38 3 10.76 3 6 3 C6 2.67 6 2.34 6 2 C3.03 1.505 3.03 1.505 0 1 C0 0.67 0 0.34 0 0 Z " fill="#1B1B1B" transform="translate(298,822)"/>
<path d="M0 0 C0.99 0 1.98 0 3 0 C3.08078641 2.12438339 3.13909141 4.2496323 3.1875 6.375 C3.22230469 7.55835938 3.25710938 8.74171875 3.29296875 9.9609375 C3.19628906 10.96382812 3.09960938 11.96671875 3 13 C2.01 13.66 1.02 14.32 0 15 C0 10.05 0 5.1 0 0 Z " fill="#212121" transform="translate(880,733)"/>
<path d="M0 0 C2.29783606 3.44675409 2.29754883 4.93328112 2.3125 9 C2.32925781 10.051875 2.34601562 11.10375 2.36328125 12.1875 C2 15 2 15 0.48046875 16.875 C-0.00808594 17.24625 -0.49664063 17.6175 -1 18 C-1.18451025 5.33029613 -1.18451025 5.33029613 0 0 Z " fill="#191919" transform="translate(901,512)"/>
<path d="M0 0 C3.63 0 7.26 0 11 0 C11.33 0.99 11.66 1.98 12 3 C8.37 3 4.74 3 1 3 C0.67 2.01 0.34 1.02 0 0 Z " fill="#191919" transform="translate(541,820)"/>
<path d="M0 0 C0.33 0.99 0.66 1.98 1 3 C-0.175625 2.979375 -1.35125 2.95875 -2.5625 2.9375 C-6.47413467 2.93052739 -10.14497944 3.35749657 -14 4 C-12 1 -12 1 -8.6875 0.3125 C-5.75903238 0.06432478 -2.9340986 -0.08891208 0 0 Z " fill="#1C1C1C" transform="translate(309,750)"/>
<path d="M0 0 C0.33 0.66 0.66 1.32 1 2 C2.32 2.66 3.64 3.32 5 4 C0.38 4 -4.24 4 -9 4 C-9 3.01 -9 2.02 -9 1 C-6.04335481 -0.4783226 -3.25770263 -0.06032783 0 0 Z " fill="#1A1A1A" transform="translate(604,694)"/>
<path d="M0 0 C0 0.99 0 1.98 0 3 C-1.77049689 3.05410687 -3.54146849 3.09284119 -5.3125 3.125 C-6.79169922 3.15980469 -6.79169922 3.15980469 -8.30078125 3.1953125 C-11 3 -11 3 -14 1 C-9.27616037 0.34843591 -4.78025483 -0.11950637 0 0 Z " fill="#212021" transform="translate(342,746)"/>
<path d="M0 0 C-1 2 -1 2 -4.0625 3.125 C-8.09858291 4.19682285 -11.84184728 4.1459001 -16 4 C-11.43026546 -0.20415577 -5.95720178 -0.18052127 0 0 Z " fill="#191919" transform="translate(685,741)"/>
<path d="M0 0 C-0.0870005 1.62600941 -0.1951781 3.25089678 -0.3125 4.875 C-0.37050781 5.77992188 -0.42851563 6.68484375 -0.48828125 7.6171875 C-1 10 -1 10 -4 12 C-3.88648483 10.18674449 -3.75887039 8.37436643 -3.625 6.5625 C-3.55539062 5.55316406 -3.48578125 4.54382813 -3.4140625 3.50390625 C-3.27742187 2.67761719 -3.14078125 1.85132813 -3 1 C-1 0 -1 0 0 0 Z " fill="#181718" transform="translate(881,760)"/>
<path d="M0 0 C2.8203125 -0.29296875 2.8203125 -0.29296875 6.125 -0.1875 C7.76855469 -0.14689453 7.76855469 -0.14689453 9.4453125 -0.10546875 C10.28835938 -0.07066406 11.13140625 -0.03585937 12 0 C8.31035266 2.45976489 6.72571521 3.12465307 2.375 3.0625 C1.14910156 3.04896484 1.14910156 3.04896484 -0.1015625 3.03515625 C-1.04128906 3.01775391 -1.04128906 3.01775391 -2 3 C-1.34 2.01 -0.68 1.02 0 0 Z " fill="#1B1C1C" transform="translate(511,721)"/>
<path d="M0 0 C3.21880117 3.7935871 5.6163187 7.65829477 8 12 C5.625 11.4375 5.625 11.4375 3 10 C1.6875 6.375 1.6875 6.375 1 3 C0.34 3 -0.32 3 -1 3 C-0.67 2.01 -0.34 1.02 0 0 Z " fill="#171617" transform="translate(865,404)"/>
<path d="M0 0 C-2.22825644 2.22825644 -3.65761628 2.69239369 -6.625 3.625 C-7.44226563 3.88539063 -8.25953125 4.14578125 -9.1015625 4.4140625 C-9.72804688 4.60742188 -10.35453125 4.80078125 -11 5 C-9.65141812 1.83180047 -9.35937299 1.16057091 -6.0625 -0.3125 C-3 -1 -3 -1 0 0 Z " fill="#E9E9E9" transform="translate(805,712)"/>
<path d="M0 0 C0.66 0.33 1.32 0.66 2 1 C1.195625 1.28875 0.39125 1.5775 -0.4375 1.875 C-3.1326468 2.73262568 -3.1326468 2.73262568 -4 5 C-6.32156597 5.40729228 -8.6568787 5.74438677 -11 6 C-11.33 5.01 -11.66 4.02 -12 3 C-11.30132813 2.86722656 -10.60265625 2.73445312 -9.8828125 2.59765625 C-8.51769531 2.33275391 -8.51769531 2.33275391 -7.125 2.0625 C-6.22007812 1.88847656 -5.31515625 1.71445312 -4.3828125 1.53515625 C-2.00043683 1.10036299 -2.00043683 1.10036299 0 0 Z " fill="#646364" transform="translate(838,697)"/>
<path d="M0 0 C0 0.33 0 0.66 0 1 C-1.0725 1.144375 -2.145 1.28875 -3.25 1.4375 C-6.75038043 1.86999946 -6.75038043 1.86999946 -9.0625 2.625 C-11.8447568 3.16350132 -14.25124238 2.56224588 -17 2 C-17 1.67 -17 1.34 -17 1 C-11.33357449 -0.22517308 -5.76291482 -0.09228867 0 0 Z " fill="#292829" transform="translate(635,699)"/>
<path d="M0 0 C1.79093191 -0.08086147 3.58289628 -0.13912702 5.375 -0.1875 C6.87160156 -0.23970703 6.87160156 -0.23970703 8.3984375 -0.29296875 C9.25695312 -0.19628906 10.11546875 -0.09960938 11 0 C11.66 0.99 12.32 1.98 13 3 C11.58430936 3.08167446 10.16723195 3.13949698 8.75 3.1875 C7.96109375 3.22230469 7.1721875 3.25710938 6.359375 3.29296875 C3.48287032 2.93578688 2.15423231 1.88248282 0 0 Z " fill="#1A1A1A" transform="translate(608,824)"/>
<path d="M0 0 C-2.68841859 2.25245881 -4.64641875 3.88213958 -8 5 C-7.75 3.125 -7.75 3.125 -7 1 C-4.09342573 -1.03460199 -3.47133392 -1.15711131 0 0 Z " fill="#171718" transform="translate(850,820)"/>
<path d="M0 0 C0.33 0.66 0.66 1.32 1 2 C-2.3 2 -5.6 2 -9 2 C-9 1.34 -9 0.68 -9 0 C-5.67032582 -0.83241855 -3.24733335 -1.2757381 0 0 Z " fill="#1C1C1D" transform="translate(479,725)"/>
<path d="M0 0 C0 0.66 0 1.32 0 2 C-2.31 2.66 -4.62 3.32 -7 4 C-7.33 3.01 -7.66 2.02 -8 1 C-3.375 -1.125 -3.375 -1.125 0 0 Z " fill="#1E1E1F" transform="translate(811,707)"/>
<path d="M0 0 C-1.28650706 0.69710731 -2.57940665 1.38242876 -3.875 2.0625 C-4.95394531 2.63677734 -4.95394531 2.63677734 -6.0546875 3.22265625 C-6.69664062 3.47917969 -7.33859375 3.73570312 -8 4 C-8.66 3.67 -9.32 3.34 -10 3 C-10 2.34 -10 1.68 -10 1 C-8.71073008 0.63720544 -7.41846728 0.28503302 -6.125 -0.0625 C-5.40570312 -0.25972656 -4.68640625 -0.45695313 -3.9453125 -0.66015625 C-2 -1 -2 -1 0 0 Z " fill="#191919" transform="translate(789,220)"/>
<path d="M0 0 C2.97 0.33 5.94 0.66 9 1 C9 1.66 9 2.32 9 3 C6.21176345 4.0326802 5.1322726 4.04509293 2.25 3.0625 C1.5075 2.711875 0.765 2.36125 0 2 C0 1.34 0 0.68 0 0 Z " fill="#1C1D1D" transform="translate(735,391)"/>
<path d="M0 0 C1.32 1.32 2.64 2.64 4 4 C2 7 2 7 -2 8 C-1.34 5.36 -0.68 2.72 0 0 Z " fill="#1A191A" transform="translate(719,665)"/>
<path d="M0 0 C2 3 2 3 1.625 5.6875 C1.41875 6.450625 1.2125 7.21375 1 8 C0.01 8 -0.98 8 -2 8 C-1.34 5.36 -0.68 2.72 0 0 Z " fill="#1B1A1B" transform="translate(724,504)"/>
<path d="M0 0 C0.66 0 1.32 0 2 0 C2.33 2.64 2.66 5.28 3 8 C2.01 7.34 1.02 6.68 0 6 C-0.1875 2.875 -0.1875 2.875 0 0 Z " fill="#151516" transform="translate(897,466)"/>
</svg>
