<?xml version="1.0" encoding="UTF-8"?>
<svg version="1.1" xmlns="http://www.w3.org/2000/svg" width="1024" height="1024">
<path d="M0 0 C337.92 0 675.84 0 1024 0 C1024 337.92 1024 675.84 1024 1024 C686.08 1024 348.16 1024 0 1024 C0 686.08 0 348.16 0 0 Z " fill="#FCFCFC" transform="translate(0,0)"/>
<path d="M0 0 C5.87453848 1.74280809 11.17575384 6.08291985 14.1640625 11.4140625 C15.12213797 13.85444341 15.91669453 16.30010603 16.69921875 18.80078125 C17.06015625 19.414375 17.42109375 20.02796875 17.79296875 20.66015625 C19.14975307 23.86497437 19.02542224 26.35340349 18.69921875 29.80078125 C15.56155203 36.4933576 11.15126436 42.68990694 4.5 46.1640625 C1.7754788 47.12739646 0.3789936 46.87269119 -2.30078125 45.80078125 C-3.59053127 45.29585784 -4.88240016 44.79632956 -6.17578125 44.30078125 C-6.79195312 44.04296875 -7.408125 43.78515625 -8.04296875 43.51953125 C-11.08183701 42.55214066 -14.14585223 42.22822621 -17.30078125 41.80078125 C-31.03950064 74.70709429 -31.03950064 74.70709429 -41.30078125 108.80078125 C-40.24761719 108.754375 -39.19445312 108.70796875 -38.109375 108.66015625 C-25.79084677 108.28351319 -12.65294477 108.77463217 -2.8203125 117.21484375 C2.69921875 122.97558845 2.69921875 122.97558845 2.69921875 126.80078125 C3.22999023 126.51855713 3.76076172 126.23633301 4.30761719 125.94555664 C10.31744823 122.98300978 15.28785352 122.13150303 21.94921875 122.23828125 C22.86437256 122.2419873 23.77952637 122.24569336 24.72241211 122.24951172 C31.68608085 122.42751647 36.94557535 123.76110368 43.203125 126.90234375 C45.61283209 128.02538722 45.61283209 128.02538722 47.8359375 127.30078125 C50.38350351 125.2499105 51.48629249 123.09424525 52.94921875 120.17578125 C53.47 119.17289063 53.99078125 118.17 54.52734375 117.13671875 C56.44059845 111.69032036 56.50987633 107.19187762 54.23828125 101.94921875 C53.61592326 100.68358318 52.97767433 99.42564471 52.32421875 98.17578125 C48.37442163 90.34041136 46.35211517 84.24298651 46.38671875 75.48828125 C46.37060547 74.68455078 46.35449219 73.88082031 46.33789062 73.05273438 C46.32982146 63.02276194 49.24718437 56.3333554 56.1640625 49.1015625 C64.53915821 41.50074374 73.37927474 38.26353798 84.64453125 38.48828125 C96.18343732 39.668732 105.55307196 47.0298491 112.97265625 55.45703125 C116.47841219 60.21597597 118.03339268 64.63568817 119.01171875 70.42578125 C120.25825579 76.73888822 122.40303349 81.85054628 125.4921875 87.47265625 C126.69921875 89.80078125 126.69921875 89.80078125 126.69921875 91.80078125 C125.04921875 92.13078125 123.39921875 92.46078125 121.69921875 92.80078125 C122.02921875 94.78078125 122.35921875 96.76078125 122.69921875 98.80078125 C122.03921875 98.80078125 121.37921875 98.80078125 120.69921875 98.80078125 C121.02921875 99.46078125 121.35921875 100.12078125 121.69921875 100.80078125 C121.71342987 102.80170711 121.63892695 104.80385253 121.51171875 106.80078125 C121.42857422 108.40953125 121.42857422 108.40953125 121.34375 110.05078125 C120.69921875 112.80078125 120.69921875 112.80078125 119.1640625 114.16796875 C115.59548468 115.08414879 112.10296955 115.00970132 108.44921875 114.92578125 C107.70414063 114.91675781 106.9590625 114.90773438 106.19140625 114.8984375 C104.36053816 114.87496483 102.52983637 114.8390965 100.69921875 114.80078125 C100.78697538 117.00982756 100.89516242 119.21806718 101.01171875 121.42578125 C101.06972656 122.65554688 101.12773438 123.8853125 101.1875 125.15234375 C101.87129036 130.02761242 103.1035544 133.5830374 107.07421875 136.61328125 C110.56940645 137.75825653 113.2409551 138.03934278 116.88671875 138.23828125 C127.38381891 138.87193308 135.57581649 141.91024336 142.69921875 149.80078125 C150.83632582 159.61817261 152.81756368 169.54788949 152.94921875 181.98828125 C153.11410084 192.55093399 155.67743848 199.59902343 160.65478516 208.75048828 C167.54528138 222.27699302 170.18032321 236.72617488 169.69921875 251.80078125 C170.95089844 252.17847656 172.20257812 252.55617188 173.4921875 252.9453125 C179.30344828 254.88694391 184.60722777 257.62642265 190.01171875 260.48828125 C191.02556641 261.02138916 192.03941406 261.55449707 193.08398438 262.10375977 C200.99066792 266.31291348 208.47573109 270.82453452 215.61328125 276.2578125 C218.85431935 278.70709015 221.81173021 280.31624454 225.63671875 281.73828125 C234.60362443 285.16720421 240.07806706 290.40595551 244.69921875 298.80078125 C247.27818873 306.5376912 246.27100748 315.52392808 242.69921875 322.80078125 C242.03704346 323.59162109 241.37486816 324.38246094 240.69262695 325.19726562 C237.58599067 329.85260924 237.93243112 335.16486335 237.7578125 340.58984375 C237.70495087 341.74972809 237.65208923 342.90961243 237.59762573 344.10464478 C237.48595059 346.58931836 237.38242444 349.07436917 237.2862854 351.55969238 C237.0353769 358.04532638 236.72826557 364.52831964 236.42578125 371.01171875 C236.36749649 372.29272461 236.30921173 373.57373047 236.24916077 374.89355469 C235.76129428 385.30762302 234.97328425 395.67133875 234.01171875 406.05078125 C230.45974667 434.08543245 230.45974667 434.08543245 239.16796875 460.0390625 C247.6490386 469.79661991 263.24107416 473.71272086 274.94140625 478.20703125 C275.98216309 478.60817139 277.02291992 479.00931152 278.09521484 479.42260742 C280.13398316 480.20466445 282.17591396 480.97853591 284.22119141 481.7434082 C285.15237793 482.09878662 286.08356445 482.45416504 287.04296875 482.8203125 C287.86990234 483.13073486 288.69683594 483.44115723 289.54882812 483.76098633 C291.81343958 484.85601133 293.15682517 485.8186322 294.69921875 487.80078125 C294.82421875 490.80078125 294.82421875 490.80078125 293.69921875 493.80078125 C288.33095513 496.76776948 283.94010981 497.21507734 277.88989258 497.09716797 C277.03698135 497.09267136 276.18407013 497.08817474 275.30531311 497.08354187 C272.50524822 497.06456889 269.70604428 497.02327739 266.90625 496.98046875 C264.95286482 496.96002932 262.99946968 496.94052233 261.04606628 496.92190552 C256.96159026 496.87945875 252.87744763 496.82598654 248.79321289 496.76464844 C243.5576832 496.68687438 238.3223057 496.63624577 233.08638477 496.59376335 C229.05682203 496.55815876 225.02752879 496.50843921 220.99817467 496.45441055 C219.06730752 496.43018397 217.13638069 496.41031012 215.20542336 496.39486313 C212.50997571 496.37114378 209.81547645 496.32848767 207.12036133 496.28076172 C206.32287476 496.27748367 205.52538818 496.27420563 204.70373535 496.27082825 C201.47636514 496.19681987 199.09632908 496.01716062 196.23539734 494.45828247 C193.02680993 490.99629075 193.3180476 486.71651146 193.3359375 482.25 C193.93940018 476.52034896 195.74792027 471.18421431 197.5078125 465.71875 C201.05704027 454.33468992 199.99235057 443.13017702 197.57421875 431.61328125 C197.23970703 429.98253662 197.23970703 429.98253662 196.8984375 428.31884766 C194.65572545 417.84098368 191.23660226 408.03796218 187.20703125 398.1328125 C181.8589744 384.03751012 182.39581051 369.76202048 186.04296875 355.2578125 C186.84091801 351.05432981 186.82920296 347.06318016 186.69921875 342.80078125 C185.49910156 343.29707031 184.29898437 343.79335938 183.0625 344.3046875 C170.77185984 349.33715414 158.41878072 353.9673857 145.69921875 357.80078125 C144.97605469 358.02813965 144.25289062 358.25549805 143.5078125 358.48974609 C122.34135886 364.92375455 95.56682405 364.17363631 74.296875 358.67578125 C70.41961642 357.73277808 67.38631655 356.99766523 63.69238281 358.75610352 C63.03979492 359.20526123 62.38720703 359.65441895 61.71484375 360.1171875 C60.58006592 360.88071533 60.58006592 360.88071533 59.42236328 361.65966797 C58.60622559 362.22186035 57.79008789 362.78405273 56.94921875 363.36328125 C55.14157468 364.56848836 53.3315714 365.7701626 51.51953125 366.96875 C50.56723633 367.59958496 49.61494141 368.23041992 48.63378906 368.88037109 C22.26771502 386.13457562 -5.56014992 400.35245411 -35.27539062 410.85180664 C-36.25701172 411.20106201 -37.23863281 411.55031738 -38.25 411.91015625 C-39.58744263 412.37953613 -39.58744263 412.37953613 -40.9519043 412.85839844 C-44.03116256 414.09381439 -46.55590428 415.95097286 -49.30078125 417.80078125 C-54.38720178 419.92225957 -59.3665526 421.07248424 -64.83007812 421.62231445 C-76.90218292 422.86244429 -87.51601791 426.95266228 -98.76953125 431.3046875 C-115.01598457 437.58749562 -131.72108481 441.39543195 -148.72509766 445.02880859 C-152.41502069 445.82544499 -156.09858208 446.64706371 -159.78125 447.4765625 C-161.60740845 447.88745117 -161.60740845 447.88745117 -163.47045898 448.30664062 C-165.79968452 448.83141125 -168.12863862 449.35738856 -170.45727539 449.88476562 C-179.1885035 451.83879305 -179.1885035 451.83879305 -183.3515625 452.32421875 C-187.14021255 452.93642445 -188.6850594 453.95696625 -191.21484375 456.734375 C-193.09564944 460.31331821 -192.66007111 463.87338501 -192.4296875 467.82421875 C-192.31340509 470.50928527 -192.53582158 472.68184347 -193.05078125 475.30078125 C-193.67349089 478.75265546 -193.67349089 478.75265546 -191.80078125 480.87890625 C-188.61640673 483.32689416 -185.39147675 484.16502539 -181.55078125 485.05078125 C-180.50470703 485.30988281 -180.50470703 485.30988281 -179.4375 485.57421875 C-177.72831537 485.99566154 -176.01491972 486.3999628 -174.30078125 486.80078125 C-173.98828125 490.11328125 -173.98828125 490.11328125 -174.30078125 493.80078125 C-179.38475542 498.39035059 -185.90084081 497.07664075 -192.30078125 496.80078125 C-193.53828125 496.76984375 -194.77578125 496.73890625 -196.05078125 496.70703125 C-203.60183551 496.38707132 -208.27201189 495.88495474 -213.73876953 490.34301758 C-217.78171582 485.92354163 -219.78660699 481.74881483 -221.67578125 476.11328125 C-224.23193331 468.99215436 -227.22740831 463.22388581 -231.69921875 457.0859375 C-234.59208588 452.95831001 -234.96208999 448.70936869 -234.30078125 443.80078125 C-231.9669598 439.13313835 -229.02823841 435.98854031 -224.30078125 433.80078125 C-219.84780312 432.61387305 -215.33138798 431.82063335 -210.80078125 430.98828125 C-200.25246295 428.87041245 -191.40600754 426.70840628 -182.30078125 420.80078125 C-181.68412598 420.4022998 -181.0674707 420.00381836 -180.43212891 419.59326172 C-174.32767696 415.61014058 -168.39428113 411.40297466 -162.5859375 407 C-148.38719849 396.25290909 -133.5183069 387.68897774 -116.30078125 382.80078125 C-115.64762939 382.60863037 -114.99447754 382.41647949 -114.3215332 382.21850586 C-105.95015794 380.0382675 -97.28940684 380.41225813 -88.69726562 380.32226562 C-87.44880859 380.29583984 -86.20035156 380.26941406 -84.9140625 380.2421875 C-83.78782471 380.22873291 -82.66158691 380.21527832 -81.5012207 380.20141602 C-70.83810516 378.8665947 -64.21691391 368.61739365 -57.72265625 360.93359375 C-47.75395926 349.20275335 -36.68406508 338.91485371 -24.30078125 329.80078125 C-23.54587402 329.24406738 -22.7909668 328.68735352 -22.01318359 328.11376953 C-7.42392196 317.39338576 -7.42392196 317.39338576 -3.33203125 315.234375 C-1.09985721 313.96673829 -1.09985721 313.96673829 -0.5859375 311.5234375 C-0.51246094 310.64558594 -0.43898438 309.76773437 -0.36328125 308.86328125 C1.87693853 293.79631634 11.76205467 284.0388869 23.32421875 275.05078125 C26.38887392 272.80078125 26.38887392 272.80078125 28.69921875 272.80078125 C31.94531047 252.3449804 31.94531047 252.3449804 26.76171875 233.55078125 C26.12105469 232.83535156 25.48039062 232.11992188 24.8203125 231.3828125 C16.95091034 221.80330084 12.9047615 208.15337304 8.69921875 196.67578125 C8.31330566 195.63349365 7.92739258 194.59120605 7.52978516 193.51733398 C5.40386021 187.54255305 4.12048482 182.1329368 3.69921875 175.80078125 C2.77967407 175.73238037 2.77967407 175.73238037 1.84155273 175.66259766 C-26.19802315 173.44576041 -53.43632558 161.49143819 -72.88671875 141.02734375 C-76.0090198 138.14755152 -79.25991016 136.53458611 -83.10546875 134.8046875 C-87.13008061 132.96425112 -89.61552351 130.79322349 -92.11328125 127.17578125 C-95.47340073 117.62596799 -92.39110085 109.65488712 -88.30078125 100.80078125 C-83.71377043 91.29571235 -78.35520501 82.44844595 -72.30078125 73.80078125 C-71.43080899 72.53918701 -70.56102839 71.2774606 -69.69140625 70.015625 C-63.43697973 61.00135321 -56.87159139 52.25861577 -50.18066406 43.56469727 C-45.50329001 37.45850164 -41.03422341 31.24879175 -36.74975586 24.86108398 C-32.9293885 19.16700882 -29.80562534 14.79050081 -23.86328125 11.23828125 C-20.95363101 9.48601622 -18.29210109 7.79357362 -15.67578125 5.62109375 C-12.61326071 3.27383294 -10.07976784 3.28174318 -6.30078125 2.80078125 C-5.59953125 2.26453125 -4.89828125 1.72828125 -4.17578125 1.17578125 C-2.30078125 -0.19921875 -2.30078125 -0.19921875 0 0 Z " fill="#101010" transform="translate(498.30078125,395.19921875)"/>
<path d="M0 0 C7.85564283 1.87039115 12.91038985 5.08558885 17.25 11.98828125 C23.61906913 24.04736434 22.94971646 35.00734511 19.07128906 47.64990234 C18.03741758 50.91994014 16.94445855 54.15349314 15.77734375 57.37890625 C13.58301819 63.66301422 12.62290411 69.32005188 12.5625 75.9375 C12.5524292 76.64777344 12.5423584 77.35804688 12.53198242 78.08984375 C12.61013812 82.77253421 13.56412263 86.01564313 16 90 C19.92019876 93.67518634 24.28855044 93.43750396 29.40234375 93.29296875 C32.61404591 92.9307467 34.55969372 92.12542805 37 90 C40.08088442 85.37867337 39.48549725 80.77486789 38.546875 75.41015625 C38.07144552 73.26053583 37.5634641 71.12808317 37 69 C44.88928053 71.68984257 50.30194561 78.21109458 54.5625 85.1875 C57.80642042 92.02986766 57.4105651 98.94034155 57.04321289 106.34643555 C56.69265285 113.15203524 56.69265285 113.15203524 60 119 C61.19396356 120.40855077 61.19396356 120.40855077 64.625 120.3125 C69.12934353 120.22386354 72.58925915 118.9698402 76 116 C82.77384415 107.73877738 83.32878058 98.72914696 83.390625 88.47070312 C83.60664865 80.60384186 86.116144 74.38803727 91.3984375 68.44140625 C100.59335545 60.1659801 110.93915494 57.39132184 123 58 C122.0925 58.94875 121.185 59.8975 120.25 60.875 C112.64269004 69.68725031 110.97446495 81.10067372 111.65234375 92.35302734 C112.29499636 97.24603266 113.95211765 101.83045335 115.5 106.5 C120.52876681 121.88822441 119.97485059 137.0859957 118 153 C123.30420809 155.23335077 128.32790073 155.72861113 134 155 C138.66072164 152.88149017 140.48165123 150.71261241 142.39526367 146.00854492 C143.64731535 141.85003496 143.43564446 137.53611433 143.43945312 133.22851562 C143.61324761 126.57038901 145.96316599 122.94630805 150.8125 118.3125 C157.27035417 113.62739011 162.32464375 112.52580107 170.125 112.6875 C171.30255859 112.68266602 171.30255859 112.68266602 172.50390625 112.67773438 C176.77441115 112.71734277 180.10830659 113.03852401 184 115 C184 115.66 184 116.32 184 117 C182.948125 117.28875 181.89625 117.5775 180.8125 117.875 C176.27720336 119.78847201 174.93303068 123.12515873 172.9453125 127.4296875 C169.7936969 135.99895637 170.22564741 145.77840519 172 154.625 C174.32894441 167.23167735 174.94135324 182.3458071 169 194 C166.58127363 197.29574547 163.97772592 200.20296133 161 203 C161.3609375 203.77085937 161.721875 204.54171875 162.09375 205.3359375 C162.5578125 206.33882812 163.021875 207.34171875 163.5 208.375 C163.9640625 209.37273437 164.428125 210.37046875 164.90625 211.3984375 C166 214 166 214 166 216 C166.90540527 215.54149658 167.81081055 215.08299316 168.74365234 214.6105957 C210.17040028 193.70977978 210.17040028 193.70977978 230.4375 193.9375 C231.48808594 193.94652344 232.53867187 193.95554687 233.62109375 193.96484375 C234.40613281 193.97644531 235.19117188 193.98804688 236 194 C232.30678605 197.94550181 228.46997517 200.89098935 223.9375 203.8125 C223.27484131 204.24771973 222.61218262 204.68293945 221.92944336 205.13134766 C219.95663494 206.4266331 217.97933303 207.71471217 216 209 C207.03385033 214.82232251 198.41141369 220.98877632 189.94970703 227.51708984 C188.0816588 228.93789187 186.18530889 230.30930019 184.27734375 231.67578125 C178.65631077 235.5214766 178.65631077 235.5214766 175.41796875 241.19921875 C175.64872349 243.6243205 176.24933762 245.68356206 177 248 C177.36269229 249.848648 177.69395202 251.70363482 178 253.5625 C178.16322754 254.51108887 178.32645508 255.45967773 178.49462891 256.43701172 C179.06060676 260.42729228 179.33957177 264.38118444 179.5625 268.40234375 C179.60568359 269.13642456 179.64886719 269.87050537 179.69335938 270.62683105 C179.7983204 272.41772846 179.89954886 274.20884398 180 276 C180.55836044 276.07659348 181.11672089 276.15318695 181.69200134 276.23210144 C229.16848926 282.75716059 229.16848926 282.75716059 244.3125 285.8125 C245.27986084 286.00674561 246.24722168 286.20099121 247.24389648 286.40112305 C251.17406453 287.23521687 254.41837735 288.16019496 258 290 C247.51543573 292.07507904 237.05261419 293.75854354 226.4375 295.04296875 C225.0254179 295.21760606 223.61339093 295.3926897 222.20141602 295.56819153 C218.54594257 296.02136944 214.88976982 296.46862273 211.23339844 296.91448975 C207.47805928 297.37354178 203.72344013 297.83840904 199.96875 298.30273438 C192.64651184 299.20739894 185.32352222 300.105783 178 301 C177.94294891 301.65503006 177.88589783 302.31006012 177.82711792 302.98493958 C177.39325354 307.67552196 176.89210571 312.19326433 175.6953125 316.76171875 C175.44136719 317.73560547 175.18742187 318.70949219 174.92578125 319.71289062 C174.66152344 320.69451172 174.39726563 321.67613281 174.125 322.6875 C173.86847656 323.68072266 173.61195313 324.67394531 173.34765625 325.69726562 C171.93847548 331.02595169 170.33346589 336.00470625 168 341 C168.67417969 341.21914063 169.34835937 341.43828125 170.04296875 341.6640625 C173.90023053 343.40670917 176.97445729 345.79701273 180.3125 348.375 C181.74332967 349.46505368 183.17432391 350.55489138 184.60546875 351.64453125 C185.33427246 352.20221191 186.06307617 352.75989258 186.81396484 353.33447266 C189.57017031 355.43440941 192.34798634 357.50439922 195.12719727 359.57373047 C206.61494414 368.13443931 217.83600125 377.0224987 229 386 C228.67 386.66 228.34 387.32 228 388 C221.28087332 385.72893073 214.5631131 383.45385188 207.84619141 381.17626953 C205.57174821 380.40553755 203.2970188 379.63564958 201.02197266 378.86669922 C185.94211933 373.76900245 170.93178527 368.51719803 156 363 C155.70649658 363.76441406 155.41299316 364.52882813 155.1105957 365.31640625 C153.79684934 368.49088417 152.09354344 371.14275706 150.1875 374 C149.52105469 375.010625 148.85460937 376.02125 148.16796875 377.0625 C145.99450718 380.00744252 143.65086144 382.48330083 141 385 C141.44082667 382.53137064 141.85247973 381.17033269 143.515625 379.25 C146.45536384 374.79397482 145.58836038 369.12363831 145 364 C144.12060204 361.69890866 143.15193083 359.8176753 141.77734375 357.78125 C140.62131391 355.13225701 141.14936634 353.75480443 142 351 C143.18903774 348.42895419 144.41619574 345.90413076 145.6875 343.375 C148.67349083 337.2081191 151.22216692 331.02661246 153.3125 324.5 C153.54219482 323.80310059 153.77188965 323.10620117 154.00854492 322.38818359 C158.06053351 309.21366088 159.50598333 295.93665598 159.39111328 282.21557617 C159.37497615 279.93412795 159.39111002 277.65444354 159.41015625 275.37304688 C159.43103302 261.73182066 157.39277623 248.76893105 153 235.8125 C152.70657715 234.94375244 152.4131543 234.07500488 152.11083984 233.17993164 C146.83837594 218.28408423 139.25189124 204.05887927 129 192 C128.28328125 191.15695312 127.5665625 190.31390625 126.828125 189.4453125 C124.60233041 186.91169526 122.31630818 184.45097727 120 182 C119.20335937 181.12730469 118.40671875 180.25460937 117.5859375 179.35546875 C95.58170222 156.12138951 62.23122299 140.17630096 30.1328125 138.83886719 C28.79694828 138.81907568 27.46098428 138.80529775 26.125 138.796875 C25.39740479 138.79117493 24.66980957 138.78547485 23.92016602 138.77960205 C22.38738424 138.77021985 20.85458292 138.76364533 19.32177734 138.75976562 C17.03314736 138.75013942 14.7454484 138.7190848 12.45703125 138.6875 C-0.75946158 138.59167858 -13.40407916 140.30410138 -25.9375 144.6875 C-26.67492432 144.94023682 -27.41234863 145.19297363 -28.17211914 145.45336914 C-40.486393 149.80859282 -52.32794529 155.43539651 -63 163 C-64.50046875 164.05574219 -64.50046875 164.05574219 -66.03125 165.1328125 C-96.0851643 187.23556986 -116.02617497 219.38295961 -123 256 C-124.05922175 263.34224722 -124.18612874 270.58007212 -124.18530273 277.98852539 C-124.1874776 280.16507888 -124.20564935 282.34111466 -124.22460938 284.51757812 C-124.27404754 296.46122683 -122.8588854 307.81654971 -119.75 319.375 C-119.53384033 320.18098633 -119.31768066 320.98697266 -119.0949707 321.81738281 C-115.16620809 335.99734457 -109.17964376 349.73053436 -101 362 C-101.23875359 366.89444868 -103.15566255 371.11790403 -105.01171875 375.5859375 C-106.1434748 378.35046414 -107.10063093 381.15199793 -108 384 C-112.02951393 380.2567748 -114.92492169 376.35278875 -117.8125 371.6875 C-118.21919922 371.04232422 -118.62589844 370.39714844 -119.04492188 369.73242188 C-120.0358257 368.15863345 -121.01875372 366.57982788 -122 365 C-128.67892949 366.94602499 -135.26305891 369.07705935 -141.8203125 371.3984375 C-143.67447479 372.04949164 -145.5286416 372.70053289 -147.3828125 373.3515625 C-150.24572525 374.35987783 -153.10831148 375.36911263 -155.97070312 376.37890625 C-165.36390541 379.68957188 -174.75813719 382.99608884 -184.2421875 386.0390625 C-184.90437286 386.25662201 -185.56655823 386.47418152 -186.24880981 386.69833374 C-190.76446395 388.11776802 -190.76446395 388.11776802 -193 387 C-177.54291826 372.47673242 -161.1257123 359.8531704 -143.6875 347.8125 C-142.85669922 347.23532227 -142.02589844 346.65814453 -141.16992188 346.06347656 C-140.39583984 345.53334961 -139.62175781 345.00322266 -138.82421875 344.45703125 C-138.13416748 343.98241455 -137.44411621 343.50779785 -136.7331543 343.01879883 C-135 342 -135 342 -133 342 C-133.19634033 341.44763672 -133.39268066 340.89527344 -133.5949707 340.32617188 C-143 313.63943579 -143 313.63943579 -143 301 C-144.8555249 301.04411011 -144.8555249 301.04411011 -146.74853516 301.08911133 C-152.57656541 301.08492259 -158.25432631 300.34533757 -164.0234375 299.57421875 C-165.1642276 299.42596146 -166.3050177 299.27770416 -167.4803772 299.12495422 C-169.88945481 298.8107084 -172.2981728 298.49369468 -174.70654297 298.17407227 C-178.32830219 297.69369385 -181.95111272 297.22205372 -185.57421875 296.75195312 C-196.07363034 295.38145033 -206.56890206 293.97470303 -217.0390625 292.39453125 C-217.81389984 292.2824382 -218.58873718 292.17034515 -219.38705444 292.05485535 C-222.8955403 291.50772173 -224.99699804 291.00200131 -228 289 C-212.06129132 285.40301612 -196.13694628 282.69238096 -179.92993164 280.63208008 C-176.37955112 280.18012322 -172.8313735 279.71310564 -169.28320312 279.24414062 C-167.00011196 278.94705496 -164.71691267 278.65079885 -162.43359375 278.35546875 C-161.38570175 278.21803757 -160.33780975 278.08060638 -159.25816345 277.93901062 C-154.12615927 277.29167137 -149.17268496 276.84267493 -144 277 C-144.05220703 276.04867187 -144.05220703 276.04867187 -144.10546875 275.078125 C-144.41727147 264.3283549 -143.42345284 252.27035852 -140 242 C-140.5875708 241.72397949 -141.1751416 241.44795898 -141.78051758 241.16357422 C-143.89747404 240.05374972 -145.63548078 238.8559069 -147.51171875 237.3828125 C-148.17856689 236.86436768 -148.84541504 236.34592285 -149.5324707 235.81176758 C-150.59921021 234.97681763 -150.59921021 234.97681763 -151.6875 234.125 C-157.62333873 229.52249527 -163.63958535 225.09127727 -169.8125 220.8125 C-175.85870109 216.60844717 -181.53484469 212.19334741 -187.12890625 207.3984375 C-191.21754997 203.98289023 -195.49403904 200.85370742 -199.796875 197.71484375 C-200.52390625 197.14894531 -201.2509375 196.58304688 -202 196 C-202 195.67 -202 195.34 -202 195 C-192.74597447 195.44579193 -183.9758906 196.69444742 -175 199 C-173.89785156 199.28101563 -172.79570312 199.56203125 -171.66015625 199.8515625 C-159.47062208 203.44397864 -148.52153332 209.74133736 -137.39746094 215.77246094 C-134.95674371 217.09824396 -134.95674371 217.09824396 -132 218 C-131.731875 217.13375 -131.46375 216.2675 -131.1875 215.375 C-130 212 -130 212 -128.25 208.875 C-126.68158302 206.17630788 -126.68158302 206.17630788 -127.71484375 204.078125 C-129.09656319 201.84385527 -130.63238338 199.89412019 -132.3125 197.875 C-139.71925436 188.49311114 -143.41158837 178.9911027 -143.01953125 167.1015625 C-142.98936724 165.38803588 -142.96009812 163.67449331 -142.93164062 161.9609375 C-142.87598672 159.29249218 -142.81249605 156.62486798 -142.73266602 153.95703125 C-141.90151929 140.02843126 -141.90151929 140.02843126 -148 128 C-150.01242325 125.91944581 -150.01242325 125.91944581 -152.25 124.6875 C-153.01699219 124.22472656 -153.78398437 123.76195312 -154.57421875 123.28515625 C-158.29850969 121.3120617 -162.09004573 119.57137642 -166 118 C-166 117.34 -166 116.68 -166 116 C-159.3808927 114.3115895 -153.31993894 113.66268217 -146.5 113.6875 C-145.61441406 113.67138672 -144.72882813 113.65527344 -143.81640625 113.63867188 C-134.06178599 113.63150989 -127.04546251 115.99515051 -119.94140625 122.765625 C-115.73584758 127.60582532 -114.20629989 133.19836991 -112.4375 139.25 C-110.83688775 144.72087574 -109.50515146 147.87851459 -104.8125 151.375 C-101.36792079 153.15542596 -98.71168539 153.40977272 -94.921875 152.66796875 C-90.20471823 151.02846914 -87.62995415 148.04992359 -85.125 143.875 C-83.00529452 137.92697796 -82.91722789 131.93730731 -85.1015625 126.01171875 C-87.5939061 120.87375908 -90.5388321 116.13149832 -93.6875 111.375 C-99.66380722 102.10643505 -101.26846704 92.98931537 -100 82 C-96.68872077 69.53671289 -89.04336233 59.88452719 -78.7109375 52.4609375 C-75.76098943 50.87119603 -73.31347093 50.35952617 -70 50 C-70.45636536 51.396478 -70.91519488 52.7921508 -71.375 54.1875 C-71.64699219 55.01636719 -71.91898438 55.84523437 -72.19921875 56.69921875 C-73 59 -73 59 -74.1875 61.5 C-76.78033042 69.47793975 -74.52376265 77.82014257 -70.95703125 85.140625 C-67.7653622 90.44370588 -63.55504037 94.44221463 -59.125 98.6875 C-50.9438123 106.5543155 -45.36715818 115.04023025 -42 126 C-36.21140514 122.76915636 -32.47765205 118.47884596 -30.37109375 112.09375 C-29.91718944 109.5327741 -29.86785565 107.10054386 -29.875 104.5 C-29.87242187 103.5615625 -29.86984375 102.623125 -29.8671875 101.65625 C-29.90457845 99.10307156 -29.90457845 99.10307156 -30.4934082 97.10546875 C-33.10144094 86.26610762 -31.78647176 72.93014291 -27 63 C-26.30583984 61.54787109 -26.30583984 61.54787109 -25.59765625 60.06640625 C-21.34001251 52.06120322 -15.57764443 45.95253499 -9.37890625 39.46044922 C-2.83958557 32.53441942 2.79280076 24.9882654 3.0859375 15.1015625 C2.69873337 9.86713623 1.65713401 4.97140204 0 0 Z " fill="#101010" transform="translate(497,118)"/>
<path d="M0 0 C1.11246094 0.53496094 2.22492188 1.06992187 3.37109375 1.62109375 C32.1209625 16.28386545 53.20484369 41.92377602 63.23120117 72.39672852 C64.23545896 75.58011527 65.18093011 78.76463421 66 82 C66.18546387 82.70326416 66.37092773 83.40652832 66.56201172 84.13110352 C68.4119973 92.0319117 68.39538871 99.99287444 68.375 108.0625 C68.37518127 109.16141571 68.37518127 109.16141571 68.37536621 110.28253174 C68.34937125 121.33432116 67.62799502 131.47146041 64 142 C63.42765625 143.70736328 63.42765625 143.70736328 62.84375 145.44921875 C61.94999848 147.99321861 61.01422918 150.50219091 60 153 C59.34 153 58.68 153 58 153 C56.78201745 151.34915601 55.62623934 149.65224555 54.5 147.9375 C47.42726323 138.02292485 38.35113359 133.42676477 26.7421875 130.4140625 C11.03706567 128.04263385 -4.69483572 129.99279451 -18 139 C-26.43645922 145.61032047 -33.04495697 155.72635559 -36 166 C-36.40436199 170.34805956 -36.32443304 174.69739518 -36.3125 179.0625 C-36.32861328 180.21427734 -36.34472656 181.36605469 -36.36132812 182.55273438 C-36.36767727 193.87325351 -34.63267794 204.09425603 -29 214 C-33.00124233 214.19912394 -37.00053573 214.34353456 -41.00561523 214.43945312 C-42.36485056 214.47946385 -43.72374629 214.53389777 -45.08178711 214.60351562 C-56.42908868 215.17025562 -56.42908868 215.17025562 -60.24951172 212.32421875 C-61.99609375 210.21875 -61.99609375 210.21875 -63.53466797 208.02050781 C-67.48873976 202.56834218 -74.17522819 201.14798199 -80.4375 199.75 C-81.53481445 199.49089844 -81.53481445 199.49089844 -82.65429688 199.2265625 C-84.43390288 198.80783167 -86.21664951 198.40248487 -88 198 C-84.52194844 187.70151399 -80.79301669 177.77299501 -76 168 C-74.88882813 167.99742187 -73.77765625 167.99484375 -72.6328125 167.9921875 C-61.53149055 167.77745208 -54.89631 165.95826068 -46.25 158.6875 C-38.37605556 149.28251081 -34.28655476 140.02577232 -34.640625 127.5625 C-35.10825954 124.2280624 -36.2424712 121.79054942 -37.92578125 118.90234375 C-39.03868775 116.93148751 -39.76821405 115.01375563 -40.5 112.875 C-41.84002238 109.17364089 -43.66276268 106.18714181 -46 103 C-46.61875 102.13375 -47.2375 101.2675 -47.875 100.375 C-54.20147387 93.30423509 -62.98856954 91.10216722 -72.1875 90.3125 C-87.2262862 90.76430903 -102.64233557 104.02401123 -112.48046875 114.1875 C-116.23343693 118.37685983 -119.66923097 122.78025965 -123.08984375 127.2421875 C-125.574164 130.47730572 -128.14559184 133.63052436 -130.74389648 136.77441406 C-143.01283205 151.11717781 -143.01283205 151.11717781 -153 167 C-156 166 -156 166 -157.61328125 163.39453125 C-171.73024434 133.63532399 -174.67991307 100.08417528 -163.97973633 68.76367188 C-152.95052523 38.32910073 -130.80283405 13.78923871 -101.6875 -0.25 C-69.83251399 -15.05053921 -31.78277404 -15.41786536 0 0 Z " fill="#101010" transform="translate(566,289)"/>
<path d="M0 0 C1.37822026 2.6492827 2.50914555 5.26719232 3.48046875 8.08984375 C11.20578849 30.83377284 11.20578849 30.83377284 28.06640625 47.17578125 C30.03266588 47.95036838 31.94680961 48.50225687 34 49 C35.66906048 49.47076065 37.33564308 49.95037115 39 50.4375 C39.83273437 50.67984375 40.66546875 50.9221875 41.5234375 51.171875 C45.23722054 52.41370781 48.55353439 54.14912032 52 56 C48.7442729 57.08524237 47.19695389 56.93066667 43.84375 56.4765625 C42.82023438 56.3425 41.79671875 56.2084375 40.7421875 56.0703125 C39.67226563 55.92335938 38.60234375 55.77640625 37.5 55.625 C24.57720866 53.89341009 11.85015159 52.83455279 -1.1875 52.4375 C-2.53451468 52.39417354 -3.88152001 52.35055552 -5.22851562 52.30664062 C-8.48559727 52.20157348 -11.74274197 52.09942166 -15 52 C-14.72325439 51.09983154 -14.44650879 50.19966309 -14.16137695 49.2722168 C-6.62906468 24.76428084 -6.62906468 24.76428084 0 0 Z " fill="#F9F9FA" transform="translate(624,630)"/>
<path d="M0 0 C15.97602784 8.16552534 26.85869315 21.68286092 37 36 C36.34 36.66 35.68 37.32 35 38 C34.63390625 37.35675781 34.2678125 36.71351563 33.890625 36.05078125 C26.02217919 22.9179705 13.94597689 8.97298844 0 2 C0 1.34 0 0.68 0 0 Z " fill="#0A0A0A" transform="translate(579,297)"/>
<path d="M0 0 C-0.66 1.65 -1.32 3.3 -2 5 C-3.93816735 4.8858134 -5.87555099 4.75826577 -7.8125 4.625 C-8.89144531 4.55539062 -9.97039062 4.48578125 -11.08203125 4.4140625 C-14 4 -14 4 -17 2 C-14.91952703 1.4678559 -12.83547707 0.94968214 -10.75 0.4375 C-9.58984375 0.14746094 -8.4296875 -0.14257812 -7.234375 -0.44140625 C-4.27909017 -0.95179964 -2.75565899 -1.02996165 0 0 Z " fill="#141414" transform="translate(286,405)"/>
<path d="M0 0 C0.33 0 0.66 0 1 0 C1.14715692 7.3905476 0.70776992 14.64424835 0 22 C-0.33 22 -0.66 22 -1 22 C-3.92857143 5.89285714 -3.92857143 5.89285714 0 0 Z " fill="#1B1B1B" transform="translate(733,771)"/>
<path d="M0 0 C0.268125 0.639375 0.53625 1.27875 0.8125 1.9375 C1.88667752 4.33131686 1.88667752 4.33131686 5 5 C3.90353942 6.79639296 2.79754852 8.58697154 1.6875 10.375 C0.76517578 11.87160156 0.76517578 11.87160156 -0.17578125 13.3984375 C-2 16 -2 16 -5 18 C-4.55935268 15.53237502 -4.11760867 14.14211048 -2.5 12.1875 C-0.71391267 9.58278931 -0.51816104 7.87604774 -0.3125 4.75 C-0.24675781 3.85796875 -0.18101562 2.9659375 -0.11328125 2.046875 C-0.07589844 1.37140625 -0.03851562 0.6959375 0 0 Z " fill="#201F20" transform="translate(643,485)"/>
<path d="M0 0 C0.33 0.66 0.66 1.32 1 2 C-6 3 -6 3 -13 4 C-13 3.01 -13 2.02 -13 1 C-8.61414671 0.29826347 -4.44209357 -0.10834375 0 0 Z " fill="#1C1C1C" transform="translate(321,399)"/>
<path d="M0 0 C0.33 0.66 0.66 1.32 1 2 C-4.625 3.125 -4.625 3.125 -8 2 C-8 2.66 -8 3.32 -8 4 C-9.65 4 -11.3 4 -13 4 C-13 3.01 -13 2.02 -13 1 C-8.61414671 0.29826347 -4.44209357 -0.10834375 0 0 Z " fill="#202020" transform="translate(336,397)"/>
<path d="M0 0 C1.21065165 3.63195496 0.62784815 5.06531629 -0.4375 8.6875 C-0.72496094 9.68136719 -1.01242187 10.67523438 -1.30859375 11.69921875 C-1.53675781 12.45847656 -1.76492188 13.21773438 -2 14 C-2.99 14 -3.98 14 -5 14 C-6.6875 12 -6.6875 12 -8 10 C-7.67 9.34 -7.34 8.68 -7 8 C-6.01 8.99 -5.02 9.98 -4 11 C-2.68 7.37 -1.36 3.74 0 0 Z " fill="#070607" transform="translate(392,487)"/>
<path d="M0 0 C2.35119399 3.52679099 2.21443452 5.02879485 2.125 9.1875 C2.10695313 10.27417969 2.08890625 11.36085938 2.0703125 12.48046875 C2.03550781 13.72763672 2.03550781 13.72763672 2 15 C1.01 14.67 0.02 14.34 -1 14 C-1.02694851 12.04174127 -1.04637218 10.08337774 -1.0625 8.125 C-1.07410156 7.03445313 -1.08570313 5.94390625 -1.09765625 4.8203125 C-1 2 -1 2 0 0 Z " fill="#181818" transform="translate(397,397)"/>
<path d="M0 0 C0.33 0 0.66 0 1 0 C1.39143394 1.74639757 1.76254287 3.49735918 2.125 5.25 C2.33382813 6.22453125 2.54265625 7.1990625 2.7578125 8.203125 C3.0202996 11.23442766 2.61988849 12.48017346 1 15 C0.63355422 13.44033408 0.28239138 11.87707349 -0.0625 10.3125 C-0.25972656 9.44238281 -0.45695312 8.57226562 -0.66015625 7.67578125 C-1.02032279 4.83998724 -0.70909969 2.75210018 0 0 Z " fill="#1D1D1D" transform="translate(374,428)"/>
<path d="M0 0 C0.99 0.33 1.98 0.66 3 1 C3.08090971 2.62418745 3.13914995 4.24951745 3.1875 5.875 C3.22230469 6.77992188 3.25710938 7.68484375 3.29296875 8.6171875 C3.19628906 9.40351562 3.09960938 10.18984375 3 11 C2.01 11.66 1.02 12.32 0 13 C0 8.71 0 4.42 0 0 Z " fill="#1C1C1D" transform="translate(732,756)"/>
<path d="M0 0 C0.99 0.33 1.98 0.66 3 1 C3 4.96 3 8.92 3 13 C-0.375 8.5 -0.375 8.5 -0.1875 4.25 C-0.16042969 3.45078125 -0.13335938 2.6515625 -0.10546875 1.828125 C-0.07066406 1.22484375 -0.03585937 0.6215625 0 0 Z " fill="#181818" transform="translate(665,634)"/>
<path d="M0 0 C3.3 0 6.6 0 10 0 C10.33 0.99 10.66 1.98 11 3 C7.37 3 3.74 3 0 3 C0 2.01 0 1.02 0 0 Z " fill="#161616" transform="translate(292,888)"/>
<path d="M0 0 C0.66 0.33 1.32 0.66 2 1 C-2.0903084 4.73936478 -5.86782097 7.74684823 -11 10 C-11 9.34 -11 8.68 -11 8 C-9.217871 6.55925285 -7.37339724 5.19489351 -5.5 3.875 C-4.4790625 3.15054687 -3.458125 2.42609375 -2.40625 1.6796875 C-1.6121875 1.12539063 -0.818125 0.57109375 0 0 Z " fill="#090909" transform="translate(522,446)"/>
<path d="M0 0 C0.99 0.33 1.98 0.66 3 1 C3 1.99 3 2.98 3 4 C3.66 4 4.32 4 5 4 C5.33 5.65 5.66 7.3 6 9 C5.01 9.495 5.01 9.495 4 10 C3.32845067 8.71086513 2.66291141 7.41859796 2 6.125 C1.62875 5.40570313 1.2575 4.68640625 0.875 3.9453125 C0 2 0 2 0 0 Z " fill="#181717" transform="translate(641,331)"/>
<path d="M0 0 C-0.33 0.99 -0.66 1.98 -1 3 C-7.0546875 3.1953125 -7.0546875 3.1953125 -9 3 C-9.66 2.34 -10.32 1.68 -11 1 C-7.27569643 0.30710631 -3.78916254 -0.11144596 0 0 Z " fill="#202020" transform="translate(501,279)"/>
<path d="M0 0 C0 0.66 0 1.32 0 2 C-4.455 2.495 -4.455 2.495 -9 3 C-9.33 2.01 -9.66 1.02 -10 0 C-2.25 -1.125 -2.25 -1.125 0 0 Z " fill="#1A1A1B" transform="translate(633,274)"/>
<path d="M0 0 C0.89332031 0.12761719 1.78664063 0.25523437 2.70703125 0.38671875 C3.60808594 0.50660156 4.50914062 0.62648438 5.4375 0.75 C6.12457031 0.85699219 6.81164062 0.96398437 7.51953125 1.07421875 C7.51953125 1.40421875 7.51953125 1.73421875 7.51953125 2.07421875 C3.11038342 3.17650571 -0.96429276 3.15076411 -5.48046875 3.07421875 C-3.68981165 0.76004728 -2.99175075 0.08951695 0 0 Z " fill="#030303" transform="translate(747.48046875,405.92578125)"/>
<path d="M0 0 C-1 2 -1 2 -3 5 C-4.65 4.67 -6.3 4.34 -8 4 C-8 3.34 -8 2.68 -8 2 C-5.09399739 0.74335022 -3.20395416 0 0 0 Z " fill="#1C1D1D" transform="translate(427,168)"/>
<path d="M0 0 C0 0.66 0 1.32 0 2 C-2.75924185 3.80411967 -3.88972103 4.0127245 -7.25 3.625 C-8.1575 3.41875 -9.065 3.2125 -10 3 C-6.71687741 1.24118433 -3.76143005 0 0 0 Z " fill="#282828" transform="translate(279,405)"/>
<path d="M0 0 C5.75 1.875 5.75 1.875 8 3 C8 3.66 8 4.32 8 5 C4.5625 4.1875 4.5625 4.1875 1 3 C0.67 2.01 0.34 1.02 0 0 Z " fill="#171616" transform="translate(345,327)"/>
<path d="M0 0 C0.99 0 1.98 0 3 0 C3.625 2.875 3.625 2.875 4 6 C3.34 6.66 2.68 7.32 2 8 C1.34 5.36 0.68 2.72 0 0 Z " fill="#1B1B1B" transform="translate(401,432)"/>
<path d="M0 0 C2.64 0.66 5.28 1.32 8 2 C5 4 5 4 2.875 3.8125 C2.25625 3.544375 1.6375 3.27625 1 3 C0.67 2.01 0.34 1.02 0 0 Z " fill="#181818" transform="translate(324,318)"/>
</svg>
