<?xml version="1.0" encoding="UTF-8"?>
<svg version="1.1" xmlns="http://www.w3.org/2000/svg" width="1024" height="1024">
<path d="M0 0 C337.92 0 675.84 0 1024 0 C1024 337.92 1024 675.84 1024 1024 C686.08 1024 348.16 1024 0 1024 C0 686.08 0 348.16 0 0 Z " fill="#FDFDFD" transform="translate(0,0)"/>
<path d="M0 0 C4.20394266 0.64676041 6.67879591 2.21442938 10.25 4.5 C10.25 3.51 10.25 2.52 10.25 1.5 C14.49946429 3.01481842 18.17367396 5.1776344 21.9375 7.625 C22.55254395 8.02388428 23.16758789 8.42276855 23.80126953 8.83374023 C33.78611843 15.39970821 43.80359263 22.83835928 50.25 33.0625 C55.16606431 40.72423852 62.43340159 45.42457363 69.76586914 50.60400391 C79.53813805 57.5071005 88.81099366 64.85242401 97.7956543 72.75097656 C101.45339275 75.96459154 105.17120264 79.05182174 109 82.0625 C125.25047172 95.34090904 139.16226235 114.60824982 148.25 133.5 C152.29746937 133.07395059 155.90461208 132.60301043 159.8125 131.4375 C163.45615569 130.44377572 166.49083007 130.2744498 170.25 130.5 C171.77355715 132.02355715 171.25 133.50652953 171.25 135.625 C171.55271442 138.80854665 171.88368093 140.12384178 174.140625 142.44140625 C175.73096248 143.6183613 177.34395849 144.76522553 178.9765625 145.8828125 C181.01919914 147.33582207 182.35857576 148.59827263 183.875 150.5625 C185.90016036 153.06730361 187.54408957 154.53738195 190.0625 156.4375 C192.70952869 158.68311115 193.19589102 159.29515887 194.125 162.8125 C192.67232311 168.93449546 188.58247194 172.8733889 184.484375 177.48828125 C183.95328125 178.09027344 183.4221875 178.69226563 182.875 179.3125 C182.39289063 179.83457031 181.91078125 180.35664062 181.4140625 180.89453125 C178.52491673 184.87922558 179.33461708 188.6870749 180 193.375 C180.23976563 195.16550781 180.23976563 195.16550781 180.484375 196.9921875 C181.7298965 202.69870946 183.7915122 206.55065092 188.25 210.3125 C189.04792969 210.99441406 189.84585937 211.67632813 190.66796875 212.37890625 C192.39047046 213.79391144 194.12232879 215.19760225 195.86328125 216.58984375 C216.45621772 233.07015326 231.81097332 252.56367415 235.25 279.5 C237.28663088 303.12115538 232.15617939 328.45976011 221.25 349.5 C222.25675781 348.943125 223.26351563 348.38625 224.30078125 347.8125 C248.4584457 334.6295086 284.49393535 316.22225855 312.8125 323.5625 C321.35513336 326.75872337 327.94650022 332.89300044 332 341 C334.70767124 348.58147947 334.58216494 356.39700561 334.81640625 364.359375 C334.83770662 365.04972588 334.859007 365.74007675 334.88095284 366.45134735 C335.24059949 378.39034906 335.31576439 390.32187109 335.27734375 402.265625 C335.27475178 403.10193954 335.27215981 403.93825409 335.26948929 404.7999115 C335.24331932 412.54245833 335.20356225 420.28491271 335.15405273 428.02734375 C335.12710317 432.33065944 335.11018764 436.63392478 335.09918404 440.93730927 C335.0930585 442.54624099 335.08316332 444.15516374 335.06910515 445.76404572 C334.42423821 465.32401991 334.42423821 465.32401991 342.85400391 482.17602539 C348.14476649 486.89908294 353.71582292 490.36391514 360 493.625 C360.99410889 494.14489502 361.98821777 494.66479004 363.01245117 495.20043945 C372.47092888 499.951064 381.94121806 502.39114222 392.25 504.5 C392.91 504.83 393.57 505.16 394.25 505.5 C394.4375 507.875 394.4375 507.875 394.25 510.5 C390.52856828 512.98095448 387.66702971 512.7718741 383.36328125 512.73046875 C382.58744186 512.73001053 381.81160248 512.72955231 381.01225281 512.7290802 C379.36891147 512.72605941 377.72557296 512.71817824 376.08227539 512.70581055 C373.58924998 512.68769439 371.09659965 512.68530006 368.60351562 512.68554688 C367.00260101 512.68062561 365.40168888 512.67479466 363.80078125 512.66796875 C363.06402664 512.66685593 362.32727203 512.6657431 361.56819153 512.66459656 C356.71701116 512.62103348 352.05778179 512.14766564 347.25 511.5 C340.44496945 511.25412217 333.64984325 511.27597095 326.875 512 C322.03938532 512.49521355 317.23253538 512.67982528 312.375 512.75 C311.64877441 512.77126953 310.92254883 512.79253906 310.17431641 512.81445312 C305.65958325 512.84378998 302.84885292 512.25844282 299.25 509.5 C296.50713989 505.97346558 296.96433166 501.76538831 297.25 497.5 C297.77148442 494.62694785 298.51364006 491.82442847 299.25 489 C301.30044936 480.37476919 301.95576548 472.34820797 301.25 463.5 C301.15203125 462.24445313 301.0540625 460.98890625 300.953125 459.6953125 C299.51957571 447.0834736 295.10927203 435.09172229 291.09838867 423.11572266 C290.85494217 422.38840439 290.61149567 421.66108612 290.360672 420.91172791 C289.89848894 419.53682316 289.43301389 418.16301899 288.96366882 416.7905426 C287.25377163 411.73184624 286.12491481 407.15538008 286.1171875 401.8125 C286.11589844 400.94882812 286.11460937 400.08515625 286.11328125 399.1953125 C286.11714844 398.30585937 286.12101562 397.41640625 286.125 396.5 C286.12113281 395.61054687 286.11726563 394.72109375 286.11328125 393.8046875 C286.11958766 389.57939209 286.16926827 385.61707324 287.25 381.5 C277.4770301 388.07926455 267.81246542 394.75836849 258.375 401.8125 C251.20763601 407.14382473 244.01193061 412.05820156 236.25 416.5 C235.19981689 417.10303955 235.19981689 417.10303955 234.12841797 417.71826172 C203.22782325 435.39363924 203.22782325 435.39363924 188.8828125 435.6640625 C180.67514756 435.87322557 175.34574378 436.55396986 169.30981445 442.49072266 C166.82246784 445.16002278 164.3992526 447.88116023 161.99072266 450.62158203 C154.76958691 458.41392683 145.17434764 464.16126198 136.06347656 469.44628906 C134.80861557 470.17541939 133.55822459 470.91227723 132.31152344 471.65527344 C112.72790985 483.30034506 91.73030679 491.17593377 69.95263672 497.68652344 C67.60613774 498.39280479 65.273467 499.13067947 62.94140625 499.8828125 C52.37273321 503.08137386 42.02071581 503.38498285 31.12133789 501.99047852 C26.14500017 501.43039219 21.2416175 501.37580609 16.23828125 501.4140625 C15.22768143 501.41806061 14.2170816 501.42205872 13.17585754 501.42617798 C9.53383043 501.44382022 5.89195757 501.47142156 2.25 501.5 C0.76495436 501.51048222 -0.72009207 501.52085347 -2.20513916 501.53112793 C-11.60949399 501.5977121 -21.01352607 501.68370825 -30.41754341 501.78754807 C-34.95435745 501.83756392 -39.4911424 501.88407229 -44.02807617 501.921875 C-48.50386413 501.95922314 -52.97947862 502.00562501 -57.45511436 502.05806351 C-59.12798733 502.07624684 -60.80089574 502.09147913 -62.47382545 502.10334396 C-78.33994345 502.22019257 -93.96960572 503.29608527 -109.4375 507 C-121.49675967 509.68744186 -133.43697741 510.77211512 -145.75 511.5 C-147.36726472 511.61085833 -148.98445747 511.72277363 -150.6015625 511.8359375 C-159.85684666 512.44338572 -169.100768 512.59742743 -178.375 512.625 C-180.04067017 512.63200928 -180.04067017 512.63200928 -181.73999023 512.63916016 C-182.76680908 512.63706543 -183.79362793 512.6349707 -184.8515625 512.6328125 C-186.23335693 512.63112061 -186.23335693 512.63112061 -187.64306641 512.62939453 C-189.75 512.5 -189.75 512.5 -190.75 511.5 C-190.6875 508.1875 -190.6875 508.1875 -189.75 504.5 C-185.23542915 500.89959458 -180.26902448 498.92867664 -174.9375 496.8125 C-154.88166774 488.58800095 -154.88166774 488.58800095 -138.75 474.5 C-127.57570276 461.36073101 -127.57570276 461.36073101 -117.9609375 460.25 C-112.70414258 460.84440791 -110.00695205 464.28199352 -106.875 468.1875 C-103.07324707 471.98306115 -100.63155615 473.19885426 -95.25 473.375 C-92.36812825 473.17831439 -89.60203626 472.90271672 -86.75 472.5 C-85.89970215 472.38350098 -85.0494043 472.26700195 -84.17333984 472.14697266 C-68.77051424 469.86234302 -54.14704665 465.32894811 -39.44995117 460.3347168 C-22.89401574 454.71951055 -8.53035829 453.48650208 8.8125 455.5 C32.49335748 458.23676543 45.15199567 453.64708687 63.83569336 438.84521484 C66.84912667 436.44021198 69.84723101 434.0167748 72.83984375 431.5859375 C79.6608332 426.05908858 86.57436531 420.71020189 93.6875 415.5625 C94.4206543 415.03092285 95.15380859 414.4993457 95.90917969 413.95166016 C96.61848633 413.44296387 97.32779297 412.93426758 98.05859375 412.41015625 C98.74904785 411.91443115 99.43950195 411.41870605 100.15087891 410.90795898 C102.25 409.5 102.25 409.5 104.50146484 408.28149414 C108.49413467 406.11480053 109.96514241 405.29880246 111.546875 400.86328125 C111.72885323 399.51684124 111.87886401 398.16577117 112 396.8125 C112.20396721 395.37529561 112.41490067 393.93906252 112.6328125 392.50390625 C112.73239258 391.81312988 112.83197266 391.12235352 112.93457031 390.41064453 C115.46212279 375.10056276 128.19276847 363.87112418 139.62109375 354.5703125 C145.65387723 349.58911513 147.94472513 345.29789212 149.25 337.5 C151.24162385 311.80478736 145.0869865 284.69187545 132.25 262.5 C131.27325688 260.71830275 130.31240612 258.92770408 129.375 257.125 C129.00632812 256.43664062 128.63765625 255.74828125 128.2578125 255.0390625 C124.82447693 246.38918607 124.97648197 237.76642898 125.0625 228.5625 C125.06314453 227.25603516 125.06378906 225.94957031 125.06445312 224.60351562 C125.09657878 217.5108839 125.34937349 210.53815259 126.25 203.5 C125.67241943 203.73066162 125.09483887 203.96132324 124.49975586 204.19897461 C115.14164287 207.83387087 106.93226191 207.39396691 97.68359375 203.62890625 C88.67602329 199.45043456 81.81781086 192.80316273 78.25 183.5 C74.49603854 172.16202181 77.22519357 158.86210083 82.25 148.5 C84.40852341 144.6971079 86.7369708 141.07647733 89.25 137.5 C89.91 136.51 90.57 135.52 91.25 134.5 C95.39180891 135.89295183 98.08847418 137.81997344 101.3125 140.75 C102.56740234 141.87148438 102.56740234 141.87148438 103.84765625 143.015625 C109.35149937 148.70740423 111.91728703 155.18169426 114.75 162.4375 C117.22027458 168.73965101 119.71162454 174.71797283 123.25 180.5 C119.38006503 168.14345192 115.25876362 155.95797329 110.125 144.0625 C109.73006348 143.1355835 109.33512695 142.20866699 108.92822266 141.25366211 C104.88538194 132.09360699 100.43639099 124.66636554 92.25 118.75 C91.06187769 117.86020535 89.87437228 116.96958634 88.6875 116.078125 C88.11032227 115.64628906 87.53314453 115.21445312 86.93847656 114.76953125 C81.47189234 110.65931755 77.46488427 106.50285489 73.5 101 C72.44468199 99.56461017 71.38868295 98.12972082 70.33203125 96.6953125 C69.81205566 95.98536133 69.29208008 95.27541016 68.75634766 94.54394531 C65.41892996 90.01544272 61.96421498 85.57652777 58.51513672 81.1328125 C57.6447783 80.00950931 56.77674296 78.88440353 55.91064453 77.7578125 C53.61246714 74.76863183 51.29357572 71.80313115 48.91796875 68.875 C47.18217154 66.72994979 45.68993744 64.63933889 44.17578125 62.3125 C39.2771893 55.50336664 35.40672988 53.90316745 27.2800293 52.47314453 C24.10241139 52.01477285 20.92480145 51.6380256 17.734375 51.28125 C13.37402894 50.76104392 9.95671264 50.01482356 6.25 47.5 C5.375 44.8125 5.375 44.8125 5.25 42.5 C9 39.5 9 39.5 11.25 39.5 C10.51394531 38.46101563 9.77789062 37.42203125 9.01953125 36.3515625 C-6.41422505 14.38286358 -6.41422505 14.38286358 -5.75 4.5 C-4.35170808 1.12764889 -3.57780474 0.65050995 0 0 Z " fill="#101010" transform="translate(441.75,344.5)"/>
<path d="M0 0 C1.20398438 0.23332031 2.40796875 0.46664063 3.6484375 0.70703125 C25.20015417 5.23291897 44.35453964 15.8113323 61 30 C61.80824219 30.66257812 62.61648438 31.32515625 63.44921875 32.0078125 C86.15788787 51.32978843 101.63791556 81.72958874 104.7890625 111.31933594 C106.77460307 136.55224736 103.4225102 159.36038167 93.5 182.5625 C93.09152832 183.52651733 93.09152832 183.52651733 92.67480469 184.51000977 C90.62561093 189.11828774 88.02991024 192.96876668 85 197 C84.13890625 196.83886719 83.2778125 196.67773438 82.390625 196.51171875 C73.45645243 195.1633586 64.73139892 195.79251314 56 198 C55.47792969 197.15179688 54.95585938 196.30359375 54.41796875 195.4296875 C41.08265328 174.03768316 24.17477136 155.2705318 3.78662109 140.32470703 C1.80945058 138.85871534 -0.13320145 137.35335618 -2.07421875 135.83984375 C-9.10816766 130.36926253 -16.21008914 125.1307739 -23.625 120.1875 C-29.30659985 116.36710216 -33.93559328 112.58297627 -38 107 C-47.22189445 94.73398505 -57.24552735 85.87436112 -69.94726562 77.39990234 C-71.81689291 76.12487346 -73.62069921 74.7948676 -75.421875 73.42578125 C-82.77981574 68.18187572 -88.52181338 66.81181938 -97.3125 68.125 C-103.88594117 69.6847996 -108.66396809 72.62773799 -112.5625 78.1875 C-115.68382722 84.73221836 -114.60845732 91.93702315 -112.3125 98.5625 C-110.48343819 103.15489259 -108.2754761 107.50083873 -105.85546875 111.80859375 C-104.83639889 114.41908779 -105.12771057 115.3935783 -106 118 C-106.43958665 124.59379972 -105.93995327 130.3465493 -101.6640625 135.66015625 C-94.82071602 142.18637204 -85.93566381 144.75452608 -76.83129883 146.25805664 C-68.62464174 147.6572531 -63.26768045 148.87186333 -58.078125 155.859375 C-57.39234375 156.89578125 -56.7065625 157.9321875 -56 159 C-55.10370317 160.25860083 -54.20231281 161.5135841 -53.296875 162.765625 C-51.25607801 165.60680765 -49.24365536 168.46539523 -47.25 171.33984375 C-35.34495862 188.69940516 -35.34495862 188.69940516 -21 204 C-19.66084688 205.32748803 -18.32594661 206.65932065 -17 208 C-17.51949219 208.79921875 -18.03898438 209.5984375 -18.57421875 210.421875 C-27.64237263 224.70296022 -33.02807921 238.97462886 -34 256 C-65.33690943 256.78185902 -95.08163535 241.19552955 -117.5703125 220.359375 C-135.52849102 202.92088654 -147.21884534 181.99527799 -154 158 C-154.34160156 156.81019531 -154.68320312 155.62039063 -155.03515625 154.39453125 C-159.62060231 134.83707059 -158.96428793 111.17255776 -153 92 C-152.79101074 91.32018066 -152.58202148 90.64036133 -152.36669922 89.93994141 C-141.4563343 55.70509597 -117.19562256 27.99827572 -85.4765625 11.50268555 C-76.33040248 6.97076326 -66.81750398 3.73920976 -57 1 C-56.32469238 0.80792969 -55.64938477 0.61585938 -54.95361328 0.41796875 C-37.84629102 -4.22070492 -17.26395064 -3.70553779 0 0 Z " fill="#101010" transform="translate(538,263)"/>
<path d="M0 0 C4.05433163 3.89724498 7.60615528 8.05509287 11.125 12.4375 C11.6926709 13.13979736 12.2603418 13.84209473 12.84521484 14.56567383 C16.93811103 19.64207662 20.96075017 24.77115061 24.97070312 29.91308594 C28.98285207 35.0319339 33.17344478 39.98683198 37.39453125 44.93359375 C40.87507659 49.01602836 44.255512 53.17904765 47.64404297 57.33789062 C50.54782407 60.89729677 53.46039888 64.44945196 56.375 68 C56.98255127 68.74282227 57.59010254 69.48564453 58.21606445 70.25097656 C58.79187256 70.9519043 59.36768066 71.65283203 59.9609375 72.375 C60.47446777 73.00148438 60.98799805 73.62796875 61.51708984 74.2734375 C62.97750403 76.03344501 62.97750403 76.03344501 64.68994141 77.6015625 C66 79 66 79 66 81 C64.97261719 81.49628906 63.94523437 81.99257812 62.88671875 82.50390625 C55.44341545 86.13867285 48.24903876 89.87110973 41.33203125 94.45703125 C38.928942 96.04701492 36.47468254 97.52463446 34 99 C25.45822665 74.98706691 16.94904444 50.96282248 8.57418823 26.89108276 C7.81606968 24.71275642 7.05689298 22.53479805 6.29666138 20.35720825 C5.23497293 17.31474953 4.17739634 14.27089462 3.12109375 11.2265625 C2.80316864 10.31733536 2.48524353 9.40810822 2.15768433 8.47132874 C1.87160309 7.64370529 1.58552185 6.81608185 1.29077148 5.96337891 C1.04004379 5.24211823 0.7893161 4.52085754 0.5309906 3.77774048 C0 2 0 2 0 0 Z " fill="#101010" transform="translate(384,168)"/>
<path d="M0 0 C1 2 1 2 0.41722107 4.22467041 C0.08416458 5.15374207 -0.24889191 6.08281372 -0.59204102 7.04003906 C-1.15571381 8.6295211 -1.15571381 8.6295211 -1.73077393 10.25111389 C-2.15090759 11.41090256 -2.57104126 12.57069122 -3.00390625 13.765625 C-3.43411072 14.9711351 -3.86431519 16.1766452 -4.30755615 17.41868591 C-5.47518797 20.68935893 -6.65242167 23.95649905 -7.83169937 27.22298813 C-8.80213765 29.91467973 -9.76698817 32.60835853 -10.73176098 35.30208492 C-18.35456233 56.58341986 -26.09980312 77.82001591 -34 99 C-35.04534912 98.32578003 -35.04534912 98.32578003 -36.11181641 97.63793945 C-41.78655177 93.99873853 -47.48736503 90.47076364 -53.375 87.1875 C-54.38240234 86.61612305 -54.38240234 86.61612305 -55.41015625 86.03320312 C-58.86827253 84.0935328 -62.26365274 82.36326184 -66 81 C-60.69521423 73.68799799 -54.86374356 66.86182757 -49 60 C-43.33375 53.35364189 -37.70542132 46.69065478 -32.28125 39.84375 C-29.28882633 36.11346844 -26.23620057 32.4343228 -23.1875 28.75 C-18.25150968 22.77961963 -13.3919876 16.75908889 -8.6394043 10.64160156 C-5.83072756 7.02973308 -2.94456511 3.5009357 0 0 Z " fill="#101010" transform="translate(640,168)"/>
<path d="M0 0 C0.99 0.33 1.98 0.66 3 1 C-14.5546875 16.046875 -14.5546875 16.046875 -16.28051758 17.52612305 C-17.43665068 18.51711773 -18.59273715 19.5081668 -19.7487793 20.49926758 C-22.65305795 22.98905327 -25.55810928 25.47792538 -28.46484375 27.96484375 C-35.1233403 33.66355701 -41.76064688 39.38570449 -48.37890625 45.13110352 C-53.30000638 49.40054234 -58.24060859 53.64672566 -63.19628906 57.87597656 C-67.03416519 61.15513242 -70.81870672 64.48664527 -74.546875 67.890625 C-76 69 -76 69 -78 69 C-78.60134766 67.71029297 -78.60134766 67.71029297 -79.21484375 66.39453125 C-82.95000236 58.62777286 -87.0718701 51.68535624 -92.1796875 44.7421875 C-93.81785173 42.27439503 -94.40647212 40.81006565 -95 38 C-94.27734955 37.71344543 -93.5546991 37.42689087 -92.81015015 37.13165283 C-85.8438656 34.36919949 -78.8777574 31.60630201 -71.91182518 28.84296036 C-68.33453591 27.42388855 -64.75718918 26.00496202 -61.1796875 24.58642578 C-46.46176208 18.75039262 -31.74616308 12.9085555 -17.04320145 7.03490448 C-15.71614115 6.50482602 -14.38897129 5.97502177 -13.06168747 5.44550323 C-11.23559613 4.71683166 -9.41002076 3.98686742 -7.58447266 3.25683594 C-6.55053375 2.84367126 -5.51659485 2.43050659 -4.45132446 2.00482178 C-2.05009866 1.05611533 -2.05009866 1.05611533 0 0 Z " fill="#101010" transform="translate(732,258)"/>
<path d="M0 0 C5.78918718 1.88072557 11.49496186 3.89965646 17.16015625 6.125 C17.92807495 6.42466675 18.69599365 6.7243335 19.48718262 7.03308105 C22.01321173 8.01971091 24.53788999 9.00974515 27.0625 10 C28.84168337 10.69604565 30.62089958 11.39200739 32.40014648 12.08789062 C54.2930766 20.65838859 76.14708571 29.32809567 98 38 C96.38707627 42.23370052 94.26744901 45.81581765 91.75 49.5625 C87.62356309 55.82186151 84.17592411 62.19978602 81 69 C77.55220914 67.49993609 75.17639467 65.49590738 72.4375 62.9375 C68.87703072 59.66981527 65.2606708 56.53520807 61.5 53.5 C57.03579543 49.88850866 52.76997886 46.11339306 48.52734375 42.24609375 C45.93037607 39.93812402 43.26595987 37.74444137 40.5625 35.5625 C35.79003797 31.70291397 31.26890891 27.62800009 26.75390625 23.47265625 C23.17764785 20.26163275 19.45286212 17.2576562 15.71484375 14.23828125 C10.25883883 9.74002108 4.983722 5.01749187 0 0 Z " fill="#101010" transform="translate(289,258)"/>
<path d="M0 0 C0.33 0 0.66 0 1 0 C1.13923386 0.83762375 1.27846771 1.6752475 1.42192078 2.53825378 C2.75866901 10.5790963 4.09627468 18.61979567 5.43475628 26.66034985 C6.12223169 30.79033853 6.80941771 34.92037485 7.49584961 39.05053711 C8.29187757 43.83983576 9.08893599 48.62896211 9.88671875 53.41796875 C10.0174667 54.20314754 10.14821465 54.98832634 10.28292465 55.79729843 C11.67031224 64.12337906 13.06967363 72.44710118 14.51025391 80.76416016 C14.6287674 81.44853936 14.7472809 82.13291857 14.86938572 82.83803654 C15.42429382 86.0382587 15.98218139 89.2379322 16.54338074 92.4370575 C16.73636246 93.54362198 16.92934418 94.65018646 17.12817383 95.7902832 C17.29746902 96.75408401 17.46676422 97.71788483 17.64118958 98.71089172 C18 101 18 101 18 103 C6.12 103 -5.76 103 -18 103 C-14.7398929 82.62433061 -11.3984263 62.26910789 -7.875 41.9375 C-7.71136963 40.98824646 -7.54773926 40.03899292 -7.37915039 39.06097412 C-5.12439329 25.99656304 -2.66243412 12.98750499 0 0 Z " fill="#111111" transform="translate(512,134)"/>
<path d="M0 0 C4.36084435 2.40091431 7.90794027 5.3598 11.625 8.625 C12.87544875 9.7106191 14.1267595 10.79524606 15.37890625 11.87890625 C15.9939502 12.4114502 16.60899414 12.94399414 17.24267578 13.49267578 C20.52000211 16.30376397 23.88178705 19.01016712 27.234375 21.73046875 C30.29367534 24.24099629 33.30319038 26.80505499 36.3125 29.375 C40.84902381 33.24534471 45.47496549 36.97142606 50.1875 40.625 C55.10577858 44.43983153 59.7560848 48.43244603 64.3359375 52.65234375 C69.67754227 57.35953505 75.36317317 61.65460756 81 66 C79 67 79 67 76.32167053 66.20048523 C75.1817717 65.76653946 74.04187286 65.33259369 72.86743164 64.88549805 C72.23751312 64.64811417 71.6075946 64.41073029 70.95858765 64.16615295 C68.85630717 63.37186709 66.75833709 62.56676536 64.66015625 61.76171875 C63.18096415 61.20062164 61.7015026 60.6402344 60.2217865 60.08052063 C56.29551908 58.59334591 52.37274241 57.09717084 48.45068359 55.59893799 C44.56984285 54.11783507 40.68629753 52.64386857 36.80273438 51.16992188 C35.27346452 50.58945623 33.74419816 50.0089814 32.2149353 49.42849731 C31.46215679 49.14276981 30.70937828 48.85704231 29.9337883 48.5626564 C27.66637802 47.70158154 25.39938692 46.83941095 23.13247681 45.97702026 C9.7852724 40.90211781 -3.59746114 35.92697013 -17 31 C-15.60095715 27.38261438 -14.03559106 24.3508127 -11.875 21.125 C-7.45543734 14.32352567 -3.73602625 7.19063753 0 0 Z " fill="#101010" transform="translate(655,450)"/>
<path d="M0 0 C0 11.88 0 23.76 0 36 C-19.60362286 33.08245202 -39.10971092 29.77097123 -58.61328125 26.25390625 C-62.74747343 25.50880952 -66.88348014 24.77430848 -71.01995087 24.04198265 C-74.23612607 23.47083737 -77.45099969 22.89262156 -80.6655426 22.31236649 C-82.19293532 22.03786575 -83.72079746 21.76596353 -85.24913025 21.49674606 C-87.35956848 21.12426295 -89.46798072 20.74190162 -91.57617188 20.35693359 C-92.77238159 20.14249603 -93.96859131 19.92805847 -95.2010498 19.7071228 C-98 19 -98 19 -100 17 C-93.47976452 15.82997866 -86.95887303 14.66366434 -80.4375 13.5 C-79.44646271 13.32314667 -78.45542542 13.14629333 -77.43435669 12.96408081 C-59.23434825 9.7202385 -41.01562003 6.59364782 -22.78491211 3.52734375 C-21.82218384 3.36487656 -20.85945557 3.20240936 -19.86755371 3.03501892 C-18.06847285 2.73150556 -16.26916948 2.429307 -14.46960449 2.12867737 C-13.67260132 1.99412643 -12.87559814 1.8595755 -12.05444336 1.72094727 C-11.36410507 1.60517838 -10.67376678 1.48940948 -9.96250916 1.37013245 C-7.98113406 1.02324889 -7.98113406 1.02324889 -5.99659729 0.4549408 C-4 0 -4 0 0 0 Z " fill="#111111" transform="translate(357,369)"/>
<path d="M0 0 C16.55602519 2.79424705 16.55602519 2.79424705 23.82226562 4.02148438 C28.70738998 4.84655843 33.59252931 5.67154282 38.4777832 6.49584961 C58.99215942 9.95746447 79.50126382 13.44676887 100 17 C99.67 17.66 99.34 18.32 99 19 C96.99601746 19.57304382 96.99601746 19.57304382 94.31713867 20.03393555 C93.31104553 20.21162979 92.30495239 20.38932404 91.26837158 20.57240295 C90.16273865 20.75862717 89.05710571 20.94485138 87.91796875 21.13671875 C86.77261658 21.33716293 85.6272644 21.53760712 84.44720459 21.74412537 C80.69526001 22.39958652 76.941416 23.04343486 73.1875 23.6875 C68.05646533 24.57993538 62.92656692 25.47878823 57.796875 26.37890625 C56.52460556 26.60149109 55.25233612 26.82407593 53.94151306 27.05340576 C41.78283918 29.19102877 29.6703132 31.53961219 17.5769043 34.01831055 C16.24788482 34.28564806 14.91886469 34.55298227 13.58984375 34.8203125 C12.47472412 35.04992676 11.35960449 35.27954102 10.21069336 35.51611328 C7 36 7 36 0 36 C0 24.12 0 12.24 0 0 Z " fill="#0F0F10" transform="translate(667,369)"/>
<path d="M0 0 C0.4846875 1.08796875 0.969375 2.1759375 1.46875 3.296875 C5.2525273 11.6400278 9.18823502 19.3073978 14.53125 26.77734375 C16 29 16 29 16 31 C15.34257812 31.23372314 14.68515625 31.46744629 14.0078125 31.70825195 C-7.88564432 39.53078704 -29.49088354 48.04689015 -51.08984375 56.64453125 C-52.03975189 57.02172806 -52.98966003 57.39892487 -53.96835327 57.78755188 C-58.21452105 59.47662891 -62.45240112 61.17983867 -66.66845703 62.94287109 C-67.36701309 63.23207932 -68.06556915 63.52128754 -68.78529358 63.81925964 C-70.60538416 64.5750455 -72.42118195 65.34114712 -74.23657227 66.1081543 C-77 67 -77 67 -80 66 C-79.06994141 65.25169922 -79.06994141 65.25169922 -78.12109375 64.48828125 C-71.23344283 58.90397038 -64.51510469 53.149711 -57.828125 47.328125 C-52.49536746 42.68555246 -47.11983519 38.09319611 -41.74707031 33.49707031 C-39.96164376 31.96713241 -38.17963855 30.43329199 -36.3984375 28.8984375 C-30.26772001 23.61976326 -24.10119862 18.40335126 -17.8125 13.3125 C-15.68555111 11.56367535 -13.58639862 9.79611707 -11.5 8 C-10.90775635 7.49154541 -10.3155127 6.98309082 -9.70532227 6.45922852 C-8.54597109 5.46126747 -7.39007289 4.45927787 -6.23803711 3.45288086 C-2.22111768 0 -2.22111768 0 0 0 Z " fill="#101010" transform="translate(369,450)"/>
<path d="M0 0 C0.69077637 0.37866211 1.38155273 0.75732422 2.09326172 1.14746094 C7.69102657 4.2136679 13.30683064 7.24477067 18.9375 10.25 C19.5756665 10.59095703 20.21383301 10.93191406 20.87133789 11.28320312 C23.89548586 12.89480045 26.92415337 14.4890578 30 16 C28.73867434 20.48471344 26.22330952 23.15917051 23.171875 26.51953125 C20.59331162 29.46447324 18.20679521 32.52997694 15.8125 35.625 C12.00090888 40.53333807 8.07482256 45.3081197 4 50 C-0.3925276 55.06299197 -4.59759908 60.23275014 -8.70605469 65.52807617 C-12.46776775 70.36216019 -16.34367482 75.09476584 -20.25 79.8125 C-24.93204062 85.467859 -29.564639 91.14732439 -34 97 C-35 95 -35 95 -34.35028076 92.8256073 C-33.98815491 91.92304703 -33.62602905 91.02048676 -33.25292969 90.09057617 C-32.64665741 88.5548571 -32.64665741 88.5548571 -32.02813721 86.9881134 C-31.35678741 85.3137043 -31.35678741 85.3137043 -30.671875 83.60546875 C-29.7357203 81.22310211 -28.80287981 78.83943096 -27.87304688 76.45458984 C-27.63310123 75.83923654 -27.39315559 75.22388323 -27.14593887 74.58988285 C-24.65381455 68.16589549 -22.34975668 61.68036653 -20.078125 55.17578125 C-19.67920044 54.0348703 -19.28027588 52.89395935 -18.8692627 51.71847534 C-17.65977968 48.2508735 -16.45427535 44.78191357 -15.25 41.3125 C-5.25583323 12.5430382 -5.25583323 12.5430382 0 0 Z " fill="#101010" transform="translate(418,513)"/>
<path d="M0 0 C15.25662939 -0.11892696 15.25662939 -0.11892696 19.1484375 2.37890625 C20.5 4.125 20.5 4.125 21.54345703 5.93774414 C23.29068484 8.41156803 25.23746171 9.92809629 27.65625 11.7421875 C28.46900391 12.35690918 29.28175781 12.97163086 30.11914062 13.60498047 C30.73982422 14.06533691 31.36050781 14.52569336 32 15 C31.58519298 17.48884211 31.17038185 19.97768354 30.7555542 22.46652222 C30.38435402 24.69382653 30.01322151 26.92114212 29.64215088 29.14846802 C28.61838393 35.29292569 27.5934122 41.43717831 26.56616211 47.58105469 C23.92548957 63.38207166 23.92548957 63.38207166 21.359375 79.1953125 C21.13191603 80.60663411 20.90430444 82.01793113 20.67651367 83.42919922 C20.27675866 85.91674033 19.88336054 88.40531407 19.49731445 90.89501953 C19.32417725 91.96606934 19.15104004 93.03711914 18.97265625 94.140625 C18.83093994 95.04329102 18.68922363 95.94595703 18.54321289 96.87597656 C18 99 18 99 16 101 C15.91309906 100.46162506 15.82619812 99.92325012 15.73666382 99.36856079 C10.03649687 64.02194842 10.03649687 64.02194842 3.90380859 28.74853516 C-0.15208681 6.20571057 -0.15208681 6.20571057 0 0 Z " fill="#101010" transform="translate(495,543)"/>
<path d="M0 0 C0.33 0 0.66 0 1 0 C1.79100181 4.18359052 2.12842034 8.13524706 2.1328125 12.390625 C2.13474609 13.64230469 2.13667969 14.89398437 2.13867188 16.18359375 C2.1345504 17.5390639 2.12998215 18.89453275 2.125 20.25 C2.12411377 20.93787598 2.12322754 21.62575195 2.12231445 22.33447266 C2.09754681 38.8983119 1.58143294 55.44771769 1 72 C0.67 72 0.34 72 0 72 C-0.33 73.98 -0.66 75.96 -1 78 C-1.33 78 -1.66 78 -2 78 C-2 68.43 -2 58.86 -2 49 C-1.67 49 -1.34 49 -1 49 C-1.00222061 48.41562164 -1.00444122 47.83124329 -1.00672913 47.22915649 C-1.02880388 41.16254282 -1.0439158 35.09594051 -1.05493164 29.02929688 C-1.05996926 26.76334164 -1.06679952 24.49738967 -1.07543945 22.23144531 C-1.08752996 18.97980953 -1.09323392 15.72821661 -1.09765625 12.4765625 C-1.10281754 11.45881744 -1.10797882 10.44107239 -1.11329651 9.39248657 C-1.11337204 8.45166229 -1.11344757 7.51083801 -1.11352539 6.54150391 C-1.115746 5.71099518 -1.11796661 4.88048645 -1.12025452 4.02481079 C-1 2 -1 2 0 0 Z " fill="#181818" transform="translate(775,721)"/>
<path d="M0 0 C0.66 0 1.32 0 2 0 C13.49261341 28.70578182 13.49261341 28.70578182 15 36 C14.67 36.66 14.34 37.32 14 38 C9.70283143 29.70702273 5.59544787 21.37437495 2 12.75 C1.69763428 12.03593994 1.39526855 11.32187988 1.08374023 10.58618164 C-0.33379889 7.11891829 -1 4.8029744 -1 1 C-0.67 0.67 -0.34 0.34 0 0 Z " fill="#F2F2F2" transform="translate(551,489)"/>
<path d="M0 0 C4.21814817 3.9700218 7.61227103 8.30840284 11 13 C10.34 14.32 9.68 15.64 9 17 C7 17 7 17 5.51171875 15.87890625 C3.51435115 13.39638993 2.77352088 10.96784552 1.8125 7.9375 C1.46832031 6.87402344 1.12414062 5.81054688 0.76953125 4.71484375 C0 2 0 2 0 0 Z " fill="#151515" transform="translate(384,168)"/>
<path d="M0 0 C0.33 0 0.66 0 1 0 C1.3902803 2.58185431 1.76263148 5.16420983 2.125 7.75 C2.23714844 8.47960937 2.34929688 9.20921875 2.46484375 9.9609375 C3.00206512 13.9005609 3.3715758 16.66222665 1 20 C0.67 19.01 0.34 18.02 0 17 C-0.99 17.33 -1.98 17.66 -3 18 C-2.51679152 11.7945858 -1.66681876 6.00054754 0 0 Z " fill="#151615" transform="translate(512,134)"/>
<path d="M0 0 C0.76699219 -0.020625 1.53398437 -0.04125 2.32421875 -0.0625 C4.546875 -0.078125 4.546875 -0.078125 8.25 0.25 C8.91 1.24 9.57 2.23 10.25 3.25 C6.64590081 3.30800828 3.04192149 3.34359869 -0.5625 3.375 C-2.09874023 3.40013672 -2.09874023 3.40013672 -3.66601562 3.42578125 C-4.64892578 3.43222656 -5.63183594 3.43867187 -6.64453125 3.4453125 C-7.55050049 3.45578613 -8.45646973 3.46625977 -9.38989258 3.47705078 C-11.75 3.25 -11.75 3.25 -14.75 1.25 C-9.7972895 0.27207627 -5.02739782 0.0344933 0 0 Z " fill="#1C1C1C" transform="translate(432.75,798.75)"/>
<path d="M0 0 C2 3 2 3 2 5 C-8.89 4.67 -19.78 4.34 -31 4 C-31 3.67 -31 3.34 -31 3 C-20.58191786 1.61092238 -10.42638399 1.70823561 0 3 C0 2.01 0 1.02 0 0 Z " fill="#040404" transform="translate(528,232)"/>
<path d="M0 0 C-1 1 -1 1 -3.04125977 1.11352539 C-3.91580811 1.10828857 -4.79035645 1.10305176 -5.69140625 1.09765625 C-6.63564453 1.09443359 -7.57988281 1.09121094 -8.55273438 1.08789062 C-9.54595703 1.07951172 -10.53917969 1.07113281 -11.5625 1.0625 C-12.55958984 1.05798828 -13.55667969 1.05347656 -14.58398438 1.04882812 C-17.05604849 1.03700007 -19.52799518 1.02051849 -22 1 C-17.44179051 -3.55820949 -5.03218646 -3.35479097 0 0 Z " fill="#1F1F1F" transform="translate(752,669)"/>
<path d="M0 0 C0.33 0 0.66 0 1 0 C1.08728882 3.24983 1.14048658 6.4993575 1.1875 9.75 C1.22520508 11.13058594 1.22520508 11.13058594 1.26367188 12.5390625 C1.27333984 13.42851563 1.28300781 14.31796875 1.29296875 15.234375 C1.3086792 16.05131836 1.32438965 16.86826172 1.34057617 17.70996094 C0.92379459 20.51240627 -0.16195148 21.88847021 -2 24 C-2.29599372 15.7943963 -1.43794854 8.07562173 0 0 Z " fill="#1C1B1B" transform="translate(676,624)"/>
<path d="M0 0 C-0.11512153 1.72985242 -0.24255677 3.45888751 -0.375 5.1875 C-0.44460938 6.15042969 -0.51421875 7.11335937 -0.5859375 8.10546875 C-1.00215853 11.01508938 -1.79874096 13.32890774 -3 16 C-3.66 16 -4.32 16 -5 16 C-4.71937057 13.51911645 -4.42609401 11.04090815 -4.125 8.5625 C-4.04636719 7.85544922 -3.96773438 7.14839844 -3.88671875 6.41992188 C-3.66072324 4.60326568 -3.33699273 2.79937478 -3 1 C-1 0 -1 0 0 0 Z " fill="#19191A" transform="translate(502,205)"/>
<path d="M0 0 C0.33 0 0.66 0 1 0 C1.66 3.3 2.32 6.6 3 10 C4.32 10.33 5.64 10.66 7 11 C6.67 11.66 6.34 12.32 6 13 C3.69 13 1.38 13 -1 13 C-0.67 8.71 -0.34 4.42 0 0 Z " fill="#161616" transform="translate(668,392)"/>
<path d="M0 0 C1 2 1 2 0.44140625 4.1640625 C0.15136719 4.97617188 -0.13867188 5.78828125 -0.4375 6.625 C-0.72496094 7.44226563 -1.01242187 8.25953125 -1.30859375 9.1015625 C-1.65083984 10.04128906 -1.65083984 10.04128906 -2 11 C-2.66 11 -3.32 11 -4 11 C-4.66 11.99 -5.32 12.98 -6 14 C-7.06439618 10.80681145 -7.11995867 10.0407168 -6 7 C-4.58984375 5.078125 -4.58984375 5.078125 -2.9375 3.25 C-2.38964844 2.63640625 -1.84179688 2.0228125 -1.27734375 1.390625 C-0.85582031 0.93171875 -0.43429687 0.4728125 0 0 Z " fill="#171616" transform="translate(640,168)"/>
<path d="M0 0 C3.34252724 -0.07427838 5.8035914 -0.06546953 9 1 C10.3917773 1.21555251 11.78831216 1.40193746 13.1875 1.5625 C14.445625 1.706875 15.70375 1.85125 17 2 C16.67 2.66 16.34 3.32 16 4 C13.89505699 3.91291962 11.79097858 3.80474307 9.6875 3.6875 C7.92986328 3.60048828 7.92986328 3.60048828 6.13671875 3.51171875 C2.9016314 2.98395232 1.91315119 2.57619276 0 0 Z " fill="#171817" transform="translate(786,853)"/>
<path d="M0 0 C0.66 0.33 1.32 0.66 2 1 C1.0409375 1.5878125 1.0409375 1.5878125 0.0625 2.1875 C-2.43778819 4.38472296 -2.64950425 5.75791433 -3 9 C-0.69 9.33 1.62 9.66 4 10 C4 10.33 4 10.66 4 11 C-2.15234375 11.09765625 -2.15234375 11.09765625 -4 11 C-4.33 10.67 -4.66 10.34 -5 10 C-4.64476021 3.60568384 -4.64476021 3.60568384 -1.9375 1.0625 C-0.9784375 0.5365625 -0.9784375 0.5365625 0 0 Z " fill="#070707" transform="translate(256,846)"/>
<path d="M0 0 C0.66 0.66 1.32 1.32 2 2 C1.34 2 0.68 2 0 2 C0.185625 2.61875 0.37125 3.2375 0.5625 3.875 C1 6 1 6 0 8 C-0.66 8 -1.32 8 -2 8 C-1.79375 8.5775 -1.5875 9.155 -1.375 9.75 C-0.91338739 12.51967567 -1.57055055 13.64561267 -3 16 C-3.66 16 -4.32 16 -5 16 C-4.54762239 14.08191891 -4.08785537 12.16557967 -3.625 10.25 C-3.24214844 8.64898437 -3.24214844 8.64898437 -2.8515625 7.015625 C-2.12466459 4.44147278 -1.2973776 2.32399814 0 0 Z " fill="#181718" transform="translate(389,345)"/>
<path d="M0 0 C0.33 0 0.66 0 1 0 C1.66 5.28 2.32 10.56 3 16 C2.01 15.67 1.02 15.34 0 15 C0.020625 14.113125 0.04125 13.22625 0.0625 12.3125 C0.1072575 9.09257221 0.1072575 9.09257221 -0.5625 6.375 C-1.02455713 3.86668989 -0.7980162 2.39404861 0 0 Z " fill="#181818" transform="translate(526,216)"/>
<path d="M0 0 C1.1725131 0.95117134 2.33787015 1.91117009 3.5 2.875 C4.47453125 3.67550781 4.47453125 3.67550781 5.46875 4.4921875 C5.9740625 4.98976562 6.479375 5.48734375 7 6 C7 6.66 7 7.32 7 8 C3.535 9.485 3.535 9.485 0 11 C0.33 10.01 0.66 9.02 1 8 C1.66 8 2.32 8 3 8 C2.505 7.05125 2.01 6.1025 1.5 5.125 C0 2 0 2 0 0 Z " fill="#191919" transform="translate(443,241)"/>
<path d="M0 0 C5.62917348 0.40208382 8.00386479 2.28930302 12 6 C10 7 10 7 8.125 6.58203125 C2.33202907 4.48420906 2.33202907 4.48420906 0.5 1.8125 C0.335 1.214375 0.17 0.61625 0 0 Z " fill="#151415" transform="translate(724,510)"/>
<path d="M0 0 C0 0.99 0 1.98 0 3 C-9.41002278 2.03644647 -9.41002278 2.03644647 -14 1 C-14 0.67 -14 0.34 -14 0 C-9.20699867 -1.39151652 -4.84864218 -0.68662689 0 0 Z " fill="#1B1B1B" transform="translate(335,398)"/>
<path d="M0 0 C1.62463842 -0.05395478 3.24978541 -0.09277195 4.875 -0.125 C5.77992188 -0.14820313 6.68484375 -0.17140625 7.6171875 -0.1953125 C10 0 10 0 12 2 C7.9472484 2.98248524 4.16138263 3.08159574 0 3 C0 2.01 0 1.02 0 0 Z " fill="#181818" transform="translate(767,853)"/>
<path d="M0 0 C0.33 0 0.66 0 1 0 C2.45295405 8.19256018 2.45295405 8.19256018 0.5625 11.5625 C0.046875 12.036875 -0.46875 12.51125 -1 13 C-2.51403812 8.15507803 -1.36602172 4.7408989 0 0 Z " fill="#1B1B1B" transform="translate(512,134)"/>
<path d="M0 0 C-2.64 1.98 -5.28 3.96 -8 6 C-8.66 5.67 -9.32 5.34 -10 5 C-10 4.01 -10 3.02 -10 2 C-3.375 -1.125 -3.375 -1.125 0 0 Z " fill="#1A1A1A" transform="translate(735,259)"/>
<path d="M0 0 C0.99 0 1.98 0 3 0 C2.67 3.3 2.34 6.6 2 10 C1.01 10 0.02 10 -1 10 C-0.67 6.7 -0.34 3.4 0 0 Z " fill="#1E1E1E" transform="translate(501,194)"/>
<path d="M0 0 C-0.33 4.29 -0.66 8.58 -1 13 C-3.13586678 9.79619983 -3.23132175 8.98060033 -3.125 5.3125 C-3.10695313 4.50425781 -3.08890625 3.69601562 -3.0703125 2.86328125 C-3.04710937 2.24839844 -3.02390625 1.63351562 -3 1 C-1 0 -1 0 0 0 Z " fill="#1B1B1B" transform="translate(731,730)"/>
<path d="M0 0 C3.49213092 1.11113256 6.76614245 2.27527597 10 4 C10.7425 4.37125 11.485 4.7425 12.25 5.125 C12.8275 5.41375 13.405 5.7025 14 6 C11.3921814 6.98464547 10.31037786 7.1236295 7.67578125 6.07421875 C6.89589844 5.61660156 6.11601562 5.15898437 5.3125 4.6875 C4.52488281 4.23761719 3.73726563 3.78773438 2.92578125 3.32421875 C1 2 1 2 0 0 Z " fill="#191919" transform="translate(446,501)"/>
<path d="M0 0 C3 2 3 2 3.51171875 4.1640625 C3.56972656 4.97617188 3.62773438 5.78828125 3.6875 6.625 C3.75324219 7.44226563 3.81898438 8.25953125 3.88671875 9.1015625 C3.92410156 9.72804687 3.96148438 10.35453125 4 11 C3.01 11.33 2.02 11.66 1 12 C1.33 9.69 1.66 7.38 2 5 C1.34 5 0.68 5 0 5 C0 3.35 0 1.7 0 0 Z " fill="#1B1B1B" transform="translate(519,185)"/>
<path d="M0 0 C3.77727089 1.81309003 7.37269822 3.9073259 11 6 C10.67 6.99 10.34 7.98 10 9 C9.44570313 8.57847656 8.89140625 8.15695312 8.3203125 7.72265625 C7.59585938 7.17480469 6.87140625 6.62695312 6.125 6.0625 C5.40570312 5.51722656 4.68640625 4.97195313 3.9453125 4.41015625 C2.05642921 2.96035376 2.05642921 2.96035376 0 2 C0 1.34 0 0.68 0 0 Z " fill="#171717" transform="translate(524,454)"/>
<path d="M0 0 C0.66 0.33 1.32 0.66 2 1 C2.38932033 2.98985949 2.71887936 4.99199544 3 7 C3.33 7.99 3.66 8.98 4 10 C3.01 10 2.02 10 1 10 C0.63720544 8.71073008 0.28503302 7.41846728 -0.0625 6.125 C-0.35833984 5.04605469 -0.35833984 5.04605469 -0.66015625 3.9453125 C-1 2 -1 2 0 0 Z " fill="#171617" transform="translate(562,508)"/>
<path d="M0 0 C2.375 0.1875 2.375 0.1875 5 1 C6.3125 3.5625 6.3125 3.5625 7 6 C5.35 6 3.7 6 2 6 C1.67 5.01 1.34 4.02 1 3 C1.33 2.34 1.66 1.68 2 1 C1.34 0.67 0.68 0.34 0 0 Z " fill="#202020" transform="translate(267,384)"/>
<path d="M0 0 C1.96301592 3.50538557 2.95902388 7.13351728 4 11 C3.01 11 2.02 11 1 11 C-1.125 3.375 -1.125 3.375 0 0 Z " fill="#171616" transform="translate(395,194)"/>
<path d="M0 0 C0 0.66 0 1.32 0 2 C-1.45635371 2.22174933 -2.91522956 2.42698698 -4.375 2.625 C-5.18710937 2.74101563 -5.99921875 2.85703125 -6.8359375 2.9765625 C-7.55007813 2.98429688 -8.26421875 2.99203125 -9 3 C-9.66 2.34 -10.32 1.68 -11 1 C-9.5437328 0.63743142 -8.08488815 0.28520207 -6.625 -0.0625 C-5.40683594 -0.35833984 -5.40683594 -0.35833984 -4.1640625 -0.66015625 C-2 -1 -2 -1 0 0 Z " fill="#191919" transform="translate(378,814)"/>
<path d="M0 0 C0 0.66 0 1.32 0 2 C-1.45635371 2.22174933 -2.91522956 2.42698698 -4.375 2.625 C-5.18710937 2.74101563 -5.99921875 2.85703125 -6.8359375 2.9765625 C-7.55007813 2.98429688 -8.26421875 2.99203125 -9 3 C-9.66 2.34 -10.32 1.68 -11 1 C-7.32589215 -0.17571451 -3.83070817 -0.07366746 0 0 Z " fill="#161616" transform="translate(421,801)"/>
<path d="M0 0 C0.99 0 1.98 0 3 0 C2.25 2.9375 2.25 2.9375 1 6 C-1.125 6.875 -1.125 6.875 -3 7 C-2.01 4.69 -1.02 2.38 0 0 Z " fill="#1A1A1A" transform="translate(526,489)"/>
<path d="M0 0 C4.95 1.98 4.95 1.98 10 4 C9.01 4.66 8.02 5.32 7 6 C3.535 4.02 3.535 4.02 0 2 C0 1.34 0 0.68 0 0 Z " fill="#161717" transform="translate(565,272)"/>
<path d="M0 0 C2.31 0.66 4.62 1.32 7 2 C7.12375 2.639375 7.2475 3.27875 7.375 3.9375 C7.684375 4.9584375 7.684375 4.9584375 8 6 C8.66 6.33 9.32 6.66 10 7 C6.433255 7 5.89456323 6.36308045 3.3125 4.0625 C2.68988281 3.51722656 2.06726563 2.97195313 1.42578125 2.41015625 C0.95527344 1.94480469 0.48476563 1.47945313 0 1 C0 0.67 0 0.34 0 0 Z " fill="#191818" transform="translate(289,258)"/>
<path d="M0 0 C2.64752004 2.57784846 4.94432065 4.91648098 7 8 C6.01 8.495 6.01 8.495 5 9 C5 8.34 5 7.68 5 7 C4.01 7.33 3.02 7.66 2 8 C1.34 5.36 0.68 2.72 0 0 Z " fill="#1C1C1C" transform="translate(384,168)"/>
<path d="M0 0 C1.27351308 2.54702616 0.80191925 3.4282945 0.0625 6.125 C-0.13214844 6.84945312 -0.32679688 7.57390625 -0.52734375 8.3203125 C-0.68332031 8.87460937 -0.83929687 9.42890625 -1 10 C-1.33 10 -1.66 10 -2 10 C-2.33 7.36 -2.66 4.72 -3 2 C-2.01 1.34 -1.02 0.68 0 0 Z " fill="#1E1E1E" transform="translate(513,634)"/>
<path d="M0 0 C1.88391785 3.26545761 2.49287967 6.28111761 3 10 C2.01 9.67 1.02 9.34 0 9 C-1.125 3.375 -1.125 3.375 0 0 Z " fill="#161616" transform="translate(672,606)"/>
<path d="M0 0 C0.66 0.33 1.32 0.66 2 1 C2.6328125 3.06640625 2.6328125 3.06640625 3.125 5.5625 C3.29257812 6.38878906 3.46015625 7.21507812 3.6328125 8.06640625 C3.75398437 8.70449219 3.87515625 9.34257813 4 10 C1.02873292 7.28922757 0.11756266 4.86848614 -1 1 C-0.67 0.67 -0.34 0.34 0 0 Z " fill="#EFF0F0" transform="translate(562,517)"/>
<path d="M0 0 C1.25541557 3.76624671 0.37061958 5.37188934 -1 9 C-1.66 8.67 -2.32 8.34 -3 8 C-2.74438677 5.6568787 -2.40729228 3.32156597 -2 1 C-1.34 0.67 -0.68 0.34 0 0 Z " fill="#181818" transform="translate(522,503)"/>
<path d="M0 0 C3.3 0.33 6.6 0.66 10 1 C9.67 1.99 9.34 2.98 9 4 C6.36 3.67 3.72 3.34 1 3 C0.67 2.01 0.34 1.02 0 0 Z " fill="#1C1C1C" transform="translate(336,399)"/>
<path d="M0 0 C2.97 0.33 5.94 0.66 9 1 C5.5647952 3.29013653 4.014669 3.17842973 0 3 C0 2.01 0 1.02 0 0 Z " fill="#1B1C1C" transform="translate(320,805)"/>
<path d="M0 0 C1.5 1.375 1.5 1.375 3 3 C3 3.66 3 4.32 3 5 C0.03 4.67 -2.94 4.34 -6 4 C-4.03617993 2.49440461 -2.21736634 1.10868317 0 0 Z " fill="#1D1D1D" transform="translate(354,400)"/>
<path d="M0 0 C0.66 0.33 1.32 0.66 2 1 C1.01 2.98 0.02 4.96 -1 7 C-1.66 7 -2.32 7 -3 7 C-3.33 5.68 -3.66 4.36 -4 3 C-3.34 3 -2.68 3 -2 3 C-2 2.34 -2 1.68 -2 1 C-1.34 0.67 -0.68 0.34 0 0 Z " fill="#1E1E1E" transform="translate(371,320)"/>
<path d="M0 0 C1.98 0 3.96 0 6 0 C6.33 0.99 6.66 1.98 7 3 C5.02 3 3.04 3 1 3 C0.67 2.01 0.34 1.02 0 0 Z " fill="#1E1E1E" transform="translate(467,843)"/>
<path d="M0 0 C0.33 0 0.66 0 1 0 C1 2.31 1 4.62 1 7 C0.01 7.33 -0.98 7.66 -2 8 C-2 6.02 -2 4.04 -2 2 C-1.34 2 -0.68 2 0 2 C0 1.34 0 0.68 0 0 Z " fill="#171717" transform="translate(569,556)"/>
<path d="M0 0 C1.98 0.495 1.98 0.495 4 1 C3.0022242 3.99332739 2.2477975 4.94766315 0 7 C-1.04449911 3.86650268 -0.93423645 3.01031744 0 0 Z " fill="#1E1E1E" transform="translate(634,175)"/>
<path d="M0 0 C0.66 0.33 1.32 0.66 2 1 C2 3.64 2 6.28 2 9 C1.01 8.34 0.02 7.68 -1 7 C-0.67 4.69 -0.34 2.38 0 0 Z " fill="#1A1A1A" transform="translate(382,398)"/>
<path d="M0 0 C2.475 0.495 2.475 0.495 5 1 C4.67 2.32 4.34 3.64 4 5 C4.66 5.33 5.32 5.66 6 6 C4.125 5.8125 4.125 5.8125 2 5 C0.75 2.4375 0.75 2.4375 0 0 Z " fill="#0A0A0A" transform="translate(271,384)"/>
<path d="M0 0 C0.33 0 0.66 0 1 0 C1.33 2.97 1.66 5.94 2 9 C1.01 9 0.02 9 -1 9 C-0.67 6.03 -0.34 3.06 0 0 Z " fill="#202020" transform="translate(519,175)"/>
</svg>
